<svg xmlns="http://www.w3.org/2000/svg" xmlns:xlink="http://www.w3.org/1999/xlink" width="400" zoomAndPan="magnify" viewBox="0 0 300 299.999988" height="400" preserveAspectRatio="xMidYMid meet" version="1.0"><defs><clipPath id="31f9ad82b3"><path d="M 199 90 L 213.238281 90 L 213.238281 97 L 199 97 Z M 199 90 " clip-rule="nonzero"/></clipPath><clipPath id="53afe5db32"><path d="M 116.859375 90 L 131 90 L 131 97 L 116.859375 97 Z M 116.859375 90 " clip-rule="nonzero"/></clipPath><clipPath id="9a6e3be5ac"><path d="M 150 154 L 181 154 L 181 174.769531 L 150 174.769531 Z M 150 154 " clip-rule="nonzero"/></clipPath><clipPath id="22e8225fb6"><path d="M 51.328125 8.269531 L 252.121094 8.269531 L 252.121094 294.726562 L 51.328125 294.726562 Z M 51.328125 8.269531 " clip-rule="nonzero"/></clipPath></defs><path fill="#000000" d="M 164.601562 65.78125 C 163.160156 65.78125 161.976562 64.59375 161.976562 63.144531 L 161.976562 54.882812 C 161.976562 53.433594 163.160156 52.246094 164.601562 52.246094 C 166.046875 52.246094 167.230469 53.433594 167.230469 54.882812 L 167.230469 63.144531 C 167.230469 64.59375 166.046875 65.78125 164.601562 65.78125 Z M 164.601562 65.78125 " fill-opacity="1" fill-rule="nonzero"/><g clip-path="url(#31f9ad82b3)"><path fill="#000000" d="M 210.679688 96.195312 L 202.445312 96.195312 C 201 96.195312 199.820312 95.011719 199.820312 93.558594 C 199.820312 92.109375 201 90.925781 202.445312 90.925781 L 210.679688 90.925781 C 212.121094 90.925781 213.304688 92.109375 213.304688 93.558594 C 213.304688 95.011719 212.121094 96.195312 210.679688 96.195312 Z M 210.679688 96.195312 " fill-opacity="1" fill-rule="nonzero"/></g><g clip-path="url(#53afe5db32)"><path fill="#000000" d="M 127.71875 96.195312 L 119.484375 96.195312 C 118.042969 96.195312 116.859375 95.011719 116.859375 93.558594 C 116.859375 92.109375 118.042969 90.925781 119.484375 90.925781 L 127.71875 90.925781 C 129.164062 90.925781 130.34375 92.109375 130.34375 93.558594 C 130.34375 95.011719 129.164062 96.195312 127.71875 96.195312 Z M 127.71875 96.195312 " fill-opacity="1" fill-rule="nonzero"/></g><path fill="#000000" d="M 138.011719 77.085938 C 137.34375 77.085938 136.671875 76.824219 136.160156 76.308594 L 130.34375 70.472656 C 129.320312 69.445312 129.320312 67.769531 130.34375 66.742188 C 131.367188 65.714844 133.035156 65.714844 134.0625 66.742188 L 139.878906 72.582031 C 140.902344 73.609375 140.902344 75.28125 139.878906 76.308594 C 139.351562 76.824219 138.683594 77.085938 138.011719 77.085938 Z M 138.011719 77.085938 " fill-opacity="1" fill-rule="nonzero"/><path fill="#000000" d="M 191.785156 77.085938 C 191.113281 77.085938 190.445312 76.824219 189.933594 76.308594 C 188.90625 75.28125 188.90625 73.609375 189.933594 72.582031 L 195.75 66.742188 C 196.773438 65.714844 198.441406 65.714844 199.464844 66.742188 C 200.488281 67.769531 200.488281 69.445312 199.464844 70.472656 L 193.648438 76.308594 C 193.136719 76.824219 192.464844 77.085938 191.785156 77.085938 Z M 191.785156 77.085938 " fill-opacity="1" fill-rule="nonzero"/><path fill="#000000" d="M 182.015625 140.039062 L 148.664062 140.039062 C 147.21875 140.039062 146.035156 138.851562 146.035156 137.402344 L 146.035156 135.964844 C 146.035156 130.261719 144.105469 124.605469 140.457031 119.601562 C 136.570312 114.277344 134.507812 107.964844 134.507812 101.347656 C 134.507812 92.847656 138.050781 84.625 144.238281 78.800781 C 150.5 72.898438 158.707031 69.933594 167.308594 70.472656 C 183.234375 71.472656 195.90625 84.808594 196.167969 100.835938 C 196.285156 107.9375 194.066406 114.65625 189.746094 120.257812 C 186.464844 124.527344 184.652344 130.128906 184.652344 136.03125 L 184.652344 137.417969 C 184.640625 138.867188 183.472656 140.039062 182.015625 140.039062 Z M 151.273438 134.765625 L 179.425781 134.765625 C 179.675781 128.164062 181.84375 121.90625 185.597656 117.03125 C 189.183594 112.378906 191.023438 106.804688 190.929688 100.914062 C 190.707031 87.617188 180.203125 76.546875 166.992188 75.730469 C 159.847656 75.28125 153.046875 77.734375 147.847656 82.636719 C 142.648438 87.539062 139.773438 94.191406 139.773438 101.347656 C 139.773438 106.84375 141.480469 112.074219 144.695312 116.488281 C 148.753906 122.0625 151.011719 128.363281 151.273438 134.765625 Z M 151.273438 134.765625 " fill-opacity="1" fill-rule="nonzero"/><path fill="#000000" d="M 182.328125 150.199219 L 148.359375 150.199219 C 146.914062 150.199219 145.734375 149.011719 145.734375 147.5625 C 145.734375 146.113281 146.914062 144.925781 148.359375 144.925781 L 182.316406 144.925781 C 183.761719 144.925781 184.941406 146.113281 184.941406 147.5625 C 184.941406 149.011719 183.773438 150.199219 182.328125 150.199219 Z M 182.328125 150.199219 " fill-opacity="1" fill-rule="nonzero"/><g clip-path="url(#9a6e3be5ac)"><path fill="#000000" d="M 165.339844 174.128906 C 157.027344 174.128906 150.25 167.34375 150.25 158.988281 L 150.25 156.972656 C 150.25 155.523438 151.433594 154.335938 152.878906 154.335938 L 177.785156 154.335938 C 179.230469 154.335938 180.410156 155.523438 180.410156 156.972656 L 180.410156 158.988281 C 180.425781 167.34375 173.664062 174.128906 165.339844 174.128906 Z M 155.53125 159.609375 C 155.84375 164.761719 160.125 168.859375 165.339844 168.859375 C 170.550781 168.859375 174.832031 164.761719 175.148438 159.609375 Z M 155.53125 159.609375 " fill-opacity="1" fill-rule="nonzero"/></g><path fill="#000000" d="M 170.394531 140.039062 L 160.296875 140.039062 C 159.085938 140.039062 158.039062 139.222656 157.75 138.046875 L 150.34375 108.453125 C 150.082031 107.410156 150.472656 106.316406 151.328125 105.683594 C 152.179688 105.050781 153.335938 105 154.253906 105.550781 L 158.824219 108.332031 L 163.015625 100.136719 C 163.460938 99.253906 164.367188 98.699219 165.351562 98.699219 C 166.335938 98.699219 167.242188 99.253906 167.6875 100.136719 L 171.878906 108.332031 L 176.445312 105.550781 C 177.351562 105 178.507812 105.050781 179.375 105.683594 C 180.226562 106.316406 180.621094 107.410156 180.359375 108.453125 L 172.953125 138.046875 C 172.652344 139.222656 171.601562 140.039062 170.394531 140.039062 Z M 162.34375 134.765625 L 168.359375 134.765625 L 173.703125 113.394531 L 172.191406 114.316406 C 171.5625 114.699219 170.8125 114.804688 170.117188 114.605469 C 169.421875 114.40625 168.832031 113.921875 168.488281 113.273438 L 165.351562 107.121094 L 162.214844 113.273438 C 161.882812 113.921875 161.292969 114.40625 160.585938 114.605469 C 159.890625 114.804688 159.128906 114.699219 158.511719 114.316406 L 157 113.394531 Z M 162.34375 134.765625 " fill-opacity="1" fill-rule="nonzero"/><g clip-path="url(#22e8225fb6)"><path fill="#000000" d="M 60.277344 266.457031 C 61.6875 267.914062 63.226562 269.21875 64.898438 270.363281 C 66.566406 271.511719 68.335938 272.476562 70.203125 273.265625 C 72.070312 274.054688 73.996094 274.648438 75.984375 275.046875 C 77.96875 275.449219 79.976562 275.644531 82.003906 275.636719 L 95.421875 275.636719 L 95.421875 291.0625 C 95.421875 291.355469 95.460938 291.644531 95.53125 291.929688 C 95.605469 292.210938 95.710938 292.484375 95.851562 292.738281 C 95.992188 292.996094 96.164062 293.234375 96.363281 293.445312 C 96.5625 293.660156 96.785156 293.847656 97.035156 294.003906 C 97.28125 294.164062 97.542969 294.289062 97.820312 294.378906 C 98.101562 294.46875 98.386719 294.527344 98.679688 294.546875 C 98.96875 294.566406 99.261719 294.546875 99.546875 294.496094 C 99.835938 294.441406 100.113281 294.351562 100.378906 294.230469 L 117.753906 286.171875 L 135.128906 294.230469 C 135.394531 294.351562 135.671875 294.441406 135.957031 294.496094 C 136.246094 294.546875 136.539062 294.566406 136.828125 294.546875 C 137.121094 294.527344 137.40625 294.46875 137.683594 294.378906 C 137.964844 294.289062 138.226562 294.164062 138.472656 294.003906 C 138.71875 293.847656 138.945312 293.660156 139.144531 293.445312 C 139.34375 293.234375 139.515625 292.996094 139.65625 292.738281 C 139.796875 292.484375 139.902344 292.210938 139.976562 291.929688 C 140.046875 291.644531 140.085938 291.355469 140.085938 291.0625 L 140.085938 248.800781 L 228.203125 248.800781 C 228.34375 251.261719 228.796875 253.664062 229.5625 256.003906 L 150.667969 256.003906 C 150.207031 256.003906 149.761719 256.09375 149.335938 256.269531 C 148.90625 256.445312 148.53125 256.699219 148.203125 257.027344 C 147.875 257.355469 147.621094 257.730469 147.445312 258.160156 C 147.269531 258.585938 147.179688 259.03125 147.179688 259.496094 C 147.179688 259.957031 147.269531 260.402344 147.445312 260.832031 C 147.621094 261.257812 147.875 261.636719 148.203125 261.964844 C 148.53125 262.292969 148.90625 262.542969 149.335938 262.71875 C 149.761719 262.898438 150.207031 262.984375 150.667969 262.988281 L 241.855469 262.988281 C 242.277344 262.988281 242.683594 263.066406 243.074219 263.230469 C 243.460938 263.390625 243.804688 263.621094 244.101562 263.917969 C 244.402344 264.21875 244.632812 264.5625 244.792969 264.949219 C 244.953125 265.339844 245.035156 265.746094 245.035156 266.167969 L 245.035156 268.65625 L 150.667969 268.65625 C 150.207031 268.65625 149.761719 268.742188 149.335938 268.921875 C 148.90625 269.097656 148.53125 269.351562 148.203125 269.675781 C 147.875 270.003906 147.621094 270.382812 147.445312 270.808594 C 147.269531 271.238281 147.179688 271.683594 147.179688 272.144531 C 147.179688 272.609375 147.269531 273.054688 147.445312 273.480469 C 147.621094 273.910156 147.875 274.285156 148.203125 274.613281 C 148.53125 274.941406 148.90625 275.195312 149.335938 275.371094 C 149.761719 275.546875 150.207031 275.636719 150.667969 275.636719 L 248.523438 275.636719 C 248.988281 275.636719 249.433594 275.546875 249.859375 275.371094 C 250.289062 275.195312 250.664062 274.941406 250.992188 274.613281 C 251.320312 274.285156 251.570312 273.910156 251.75 273.480469 C 251.925781 273.054688 252.015625 272.609375 252.015625 272.144531 L 252.015625 266.167969 C 252.011719 265.5 251.949219 264.839844 251.816406 264.183594 C 251.6875 263.53125 251.492188 262.894531 251.238281 262.28125 C 250.980469 261.664062 250.667969 261.078125 250.296875 260.523438 C 249.929688 259.96875 249.507812 259.457031 249.035156 258.984375 C 248.5625 258.511719 248.050781 258.089844 247.496094 257.71875 C 246.941406 257.347656 246.359375 257.035156 245.742188 256.78125 C 245.125 256.523438 244.492188 256.332031 243.835938 256.199219 C 243.183594 256.070312 242.523438 256.003906 241.855469 256.003906 L 237.066406 256.003906 C 233.429688 248.148438 235.835938 239.71875 237.242188 236.054688 L 241.855469 236.054688 C 242.519531 236.050781 243.179688 235.984375 243.835938 235.855469 C 244.488281 235.726562 245.125 235.53125 245.738281 235.277344 C 246.355469 235.019531 246.941406 234.707031 247.496094 234.335938 C 248.046875 233.964844 248.5625 233.542969 249.03125 233.074219 C 249.503906 232.601562 249.925781 232.085938 250.296875 231.535156 C 250.667969 230.980469 250.980469 230.394531 251.234375 229.777344 C 251.492188 229.160156 251.683594 228.527344 251.816406 227.871094 C 251.945312 227.21875 252.011719 226.558594 252.011719 225.890625 L 252.011719 11.757812 C 252.011719 11.296875 251.921875 10.851562 251.746094 10.421875 C 251.570312 9.996094 251.316406 9.617188 250.988281 9.289062 C 250.664062 8.964844 250.285156 8.710938 249.855469 8.535156 C 249.429688 8.355469 248.984375 8.269531 248.523438 8.269531 L 82.5625 8.269531 C 82.5 8.269531 82.445312 8.28125 82.386719 8.285156 C 82.328125 8.289062 82.277344 8.277344 82.222656 8.285156 C 78.84375 8.605469 75.59375 9.441406 72.476562 10.789062 C 69.359375 12.136719 66.527344 13.933594 63.976562 16.175781 C 62.03125 17.886719 60.285156 19.785156 58.75 21.875 C 57.210938 23.960938 55.914062 26.1875 54.851562 28.550781 C 53.792969 30.917969 53 33.371094 52.46875 35.90625 C 51.9375 38.445312 51.683594 41.011719 51.703125 43.601562 L 51.703125 244.566406 C 51.648438 246.585938 51.792969 248.589844 52.140625 250.578125 C 52.488281 252.570312 53.03125 254.503906 53.765625 256.382812 C 54.503906 258.265625 55.417969 260.050781 56.515625 261.75 C 57.613281 263.445312 58.867188 265.015625 60.277344 266.457031 Z M 133.105469 285.59375 L 119.222656 279.15625 C 118.757812 278.941406 118.265625 278.832031 117.753906 278.832031 C 117.242188 278.832031 116.753906 278.941406 116.285156 279.15625 L 102.402344 285.59375 L 102.402344 248.800781 L 133.109375 248.800781 Z M 228.527344 241.820312 L 85.730469 241.820312 C 85.269531 241.820312 84.824219 241.90625 84.394531 242.085938 C 83.96875 242.261719 83.589844 242.515625 83.261719 242.84375 C 82.9375 243.167969 82.683594 243.546875 82.507812 243.976562 C 82.332031 244.402344 82.242188 244.847656 82.242188 245.3125 C 82.242188 245.773438 82.332031 246.21875 82.507812 246.648438 C 82.683594 247.074219 82.9375 247.453125 83.261719 247.78125 C 83.589844 248.105469 83.96875 248.359375 84.394531 248.535156 C 84.824219 248.714844 85.269531 248.800781 85.730469 248.800781 L 95.421875 248.800781 L 95.421875 256.003906 L 82.003906 256.003906 C 81.328125 256.003906 80.660156 255.9375 80 255.800781 C 79.335938 255.664062 78.695312 255.464844 78.074219 255.195312 C 77.457031 254.929688 76.867188 254.605469 76.3125 254.21875 C 75.757812 253.835938 75.25 253.398438 74.785156 252.90625 C 74.316406 252.417969 73.90625 251.886719 73.546875 251.316406 C 73.191406 250.742188 72.894531 250.136719 72.660156 249.503906 C 72.421875 248.871094 72.253906 248.222656 72.152344 247.554688 C 72.046875 246.886719 72.011719 246.214844 72.046875 245.542969 C 72.09375 244.898438 72.203125 244.265625 72.375 243.640625 C 72.542969 243.019531 72.769531 242.417969 73.050781 241.835938 C 73.332031 241.253906 73.667969 240.707031 74.054688 240.1875 C 74.4375 239.671875 74.871094 239.195312 75.34375 238.757812 C 75.820312 238.320312 76.332031 237.933594 76.882812 237.59375 C 77.429688 237.253906 78.003906 236.96875 78.609375 236.734375 C 79.210938 236.503906 79.828125 236.332031 80.464844 236.214844 C 81.097656 236.101562 81.738281 236.046875 82.382812 236.054688 L 229.84375 236.054688 C 229.257812 237.941406 228.820312 239.863281 228.527344 241.820312 Z M 245.035156 225.890625 C 245.035156 226.3125 244.953125 226.714844 244.792969 227.105469 C 244.632812 227.496094 244.402344 227.839844 244.101562 228.136719 C 243.804688 228.4375 243.460938 228.664062 243.074219 228.828125 C 242.683594 228.988281 242.277344 229.070312 241.855469 229.070312 L 82.382812 229.070312 C 81.292969 229.054688 80.207031 229.144531 79.132812 229.339844 C 78.058594 229.535156 77.011719 229.828125 75.992188 230.222656 C 74.976562 230.613281 74.003906 231.101562 73.078125 231.683594 C 72.152344 232.261719 71.289062 232.925781 70.492188 233.667969 C 69.691406 234.414062 68.972656 235.230469 68.328125 236.113281 C 67.6875 236.996094 67.132812 237.929688 66.667969 238.921875 C 66.203125 239.910156 65.839844 240.933594 65.570312 241.992188 C 65.300781 243.050781 65.136719 244.125 65.074219 245.21875 C 65.046875 245.789062 65.046875 246.359375 65.078125 246.933594 C 65.109375 247.503906 65.167969 248.074219 65.257812 248.636719 C 65.34375 249.203125 65.460938 249.765625 65.605469 250.316406 C 65.75 250.871094 65.921875 251.417969 66.121094 251.953125 C 66.320312 252.488281 66.546875 253.015625 66.800781 253.527344 C 67.054688 254.042969 67.332031 254.539062 67.636719 255.027344 C 67.9375 255.511719 68.265625 255.980469 68.617188 256.433594 C 68.96875 256.882812 69.339844 257.316406 69.734375 257.730469 C 70.128906 258.148438 70.542969 258.539062 70.980469 258.914062 C 71.414062 259.285156 71.867188 259.632812 72.335938 259.960938 C 72.804688 260.289062 73.289062 260.589844 73.789062 260.867188 C 74.292969 261.144531 74.804688 261.394531 75.332031 261.621094 C 75.855469 261.847656 76.390625 262.042969 76.9375 262.214844 C 77.484375 262.386719 78.035156 262.53125 78.597656 262.644531 C 79.15625 262.757812 79.722656 262.847656 80.292969 262.902344 C 80.859375 262.960938 81.429688 262.992188 82.003906 262.992188 L 95.421875 262.992188 L 95.421875 268.660156 L 82.003906 268.660156 C 81.226562 268.660156 80.449219 268.621094 79.675781 268.542969 C 78.902344 268.464844 78.132812 268.347656 77.371094 268.195312 C 76.609375 268.039062 75.855469 267.847656 75.113281 267.617188 C 74.371094 267.386719 73.640625 267.121094 72.921875 266.820312 C 72.207031 266.515625 71.507812 266.175781 70.824219 265.804688 C 70.140625 265.433594 69.480469 265.027344 68.835938 264.585938 C 68.195312 264.148438 67.574219 263.675781 66.980469 263.175781 C 66.386719 262.675781 65.816406 262.144531 65.273438 261.585938 C 64.730469 261.027344 64.21875 260.445312 63.734375 259.835938 C 63.25 259.226562 62.800781 258.59375 62.378906 257.941406 C 61.957031 257.285156 61.570312 256.609375 61.21875 255.917969 C 60.863281 255.222656 60.546875 254.515625 60.261719 253.789062 C 59.980469 253.066406 59.734375 252.328125 59.527344 251.578125 C 59.316406 250.828125 59.148438 250.070312 59.015625 249.300781 C 58.882812 248.535156 58.789062 247.765625 58.730469 246.988281 C 58.675781 246.210938 58.660156 245.433594 58.679688 244.65625 C 59.023438 232.148438 69.738281 221.96875 82.5625 221.96875 L 245.035156 221.96875 Z M 68.539062 21.457031 C 71.605469 18.761719 75.117188 16.910156 79.074219 15.898438 L 79.074219 201.738281 C 79.074219 202.199219 79.160156 202.644531 79.339844 203.074219 C 79.515625 203.5 79.765625 203.878906 80.09375 204.207031 C 80.421875 204.53125 80.800781 204.785156 81.226562 204.960938 C 81.652344 205.140625 82.097656 205.226562 82.5625 205.226562 C 83.023438 205.226562 83.46875 205.140625 83.898438 204.960938 C 84.324219 204.785156 84.703125 204.53125 85.027344 204.207031 C 85.355469 203.878906 85.609375 203.5 85.785156 203.074219 C 85.960938 202.644531 86.050781 202.199219 86.050781 201.738281 L 86.050781 15.25 L 245.035156 15.25 L 245.035156 214.984375 L 82.5625 214.984375 C 80.28125 214.988281 78.03125 215.238281 75.804688 215.738281 C 73.582031 216.238281 71.4375 216.972656 69.375 217.941406 C 67.3125 218.914062 65.378906 220.09375 63.574219 221.488281 C 61.773438 222.882812 60.140625 224.457031 58.683594 226.210938 L 58.683594 43.601562 C 58.660156 41.511719 58.863281 39.441406 59.289062 37.394531 C 59.710938 35.347656 60.347656 33.367188 61.199219 31.457031 C 62.050781 29.546875 63.09375 27.746094 64.332031 26.0625 C 65.566406 24.375 66.96875 22.84375 68.539062 21.457031 Z M 68.539062 21.457031 " fill-opacity="1" fill-rule="nonzero"/></g></svg>