<?xml version="1.0" encoding="UTF-8" standalone="no"?>
<!-- Created with Inkscape (http://www.inkscape.org/) -->

<svg
   xmlns:dc="http://purl.org/dc/elements/1.1/"
   xmlns:cc="http://creativecommons.org/ns#"
   xmlns:rdf="http://www.w3.org/1999/02/22-rdf-syntax-ns#"
   xmlns:svg="http://www.w3.org/2000/svg"
   xmlns="http://www.w3.org/2000/svg"
   xmlns:sodipodi="http://sodipodi.sourceforge.net/DTD/sodipodi-0.dtd"
   xmlns:inkscape="http://www.inkscape.org/namespaces/inkscape"
   version="1.1"
   id="svg10"
   xml:space="preserve"
   width="755.90533"
   height="755.90533"
   viewBox="0 0 755.90533 755.90533"
   sodipodi:docname="iconelogo.svg"
   inkscape:version="0.92.4 (5da689c313, 2019-01-14)"><metadata
     id="metadata16"><rdf:RDF><cc:Work
         rdf:about=""><dc:format>image/svg+xml</dc:format><dc:type
           rdf:resource="http://purl.org/dc/dcmitype/StillImage" /><dc:title></dc:title></cc:Work></rdf:RDF></metadata><defs
     id="defs14"><clipPath
       clipPathUnits="userSpaceOnUse"
       id="clipPath26"><path
         d="M 0,566.929 H 566.929 V 0 H 0 Z"
         id="path24"
         inkscape:connector-curvature="0" /></clipPath></defs><sodipodi:namedview
     pagecolor="#ffffff"
     bordercolor="#666666"
     borderopacity="1"
     objecttolerance="10"
     gridtolerance="10"
     guidetolerance="10"
     inkscape:pageopacity="0"
     inkscape:pageshadow="2"
     inkscape:window-width="1366"
     inkscape:window-height="715"
     id="namedview12"
     showgrid="false"
     inkscape:zoom="0.68262516"
     inkscape:cx="381.33153"
     inkscape:cy="260.75804"
     inkscape:window-x="-8"
     inkscape:window-y="-8"
     inkscape:window-maximized="1"
     inkscape:current-layer="g18" /><g
     id="g18"
     inkscape:groupmode="layer"
     inkscape:label="logo"
     transform="matrix(1.3333333,0,0,-1.3333333,0,755.90533)"><g
       id="g20"
       transform="matrix(4.3284976,0,0,3.7624414,-940.47333,-776.11274)"
       style="stroke-width:0.24779728"><g
         id="g22"
         clip-path="url(#clipPath26)"
         transform="matrix(0.99412788,0,0,1,0.56208117,0)"
         style="stroke-width:0.24852805"><g
           id="g28"
           transform="translate(217.4155,298.1889)"
           style="stroke-width:0.24852805" /><g
           id="g32"
           transform="translate(231.5791,305.3911)"
           style="stroke-width:0.24852805" /><g
           id="g36"
           transform="translate(264.9668,293.1235)"
           style="stroke-width:0.24852805" /><g
           id="g40"
           transform="translate(298.7817,317.2309)"
           style="stroke-width:0.24852805" /><g
           id="g44"
           transform="translate(314.1621,305.3911)"
           style="stroke-width:0.24852805" /><g
           id="g48"
           transform="translate(327.5288,293.1235)"
           style="stroke-width:0.24852805" /><g
           id="g52"
           transform="translate(360.9165,317.2309)"
           style="stroke-width:0.24852805" /><g
           id="g56"
           transform="translate(394.0601,295.2602)"
           style="stroke-width:0.24852805" /><g
           id="g60"
           transform="translate(461.9321,293.2455)"
           style="stroke-width:0.24852805" /><g
           id="g64"
           transform="translate(187.7964,249.3188)"
           style="stroke-width:0.24852805" /><g
           id="g68"
           transform="translate(207.9185,253.9604)"
           style="stroke-width:0.24852805" /><g
           id="g72"
           transform="translate(229.4883,248.7768)"
           style="stroke-width:0.24852805" /><g
           id="g76"
           transform="translate(234.7407,258.1801)"
           style="stroke-width:0.24852805" /><g
           id="g80"
           transform="translate(262.9053,254.2016)"
           style="stroke-width:0.24852805" /><g
           id="g84"
           transform="translate(288.8135,253.4389)"
           style="stroke-width:0.24852805" /><g
           id="g88"
           transform="translate(302.0063,258.1801)"
           style="stroke-width:0.24852805" /><g
           id="g92"
           transform="translate(322.8896,252.1918)"
           style="stroke-width:0.24852805" /><g
           id="g96"
           transform="translate(335.7603,249.4799)"
           style="stroke-width:0.24852805" /><g
           id="g100"
           transform="translate(356.501,248.7768)"
           style="stroke-width:0.24852805" /><g
           id="g104"
           transform="translate(368.8057,252.1918)"
           style="stroke-width:0.24852805" /><g
           id="g108"
           transform="translate(381.6348,253.4389)"
           style="stroke-width:0.24852805" /><g
           id="g112"
           transform="translate(402.3779,252.1918)"
           style="stroke-width:0.24852805" /><g
           id="g116"
           transform="translate(408.3726,258.1801)"
           style="stroke-width:0.24852805" /><g
           id="g120"
           transform="translate(417.9214,258.1801)"
           style="stroke-width:0.24852805" /><g
           id="g124"
           transform="translate(434.7642,253.9604)"
           style="stroke-width:0.24852805" /><g
           id="g128"
           transform="translate(440.3564,258.1801)"
           style="stroke-width:0.24852805" /><g
           id="g132"
           transform="translate(446.73,258.1801)"
           style="stroke-width:0.24852805" /><g
           id="g136"
           transform="translate(462.8291,252.1918)"
           style="stroke-width:0.24852805" /><g
           id="g140"
           transform="translate(469.2651,250.143)"
           style="stroke-width:0.24852805"><path
             d="m 0,0 c 0.382,0 0.664,-0.281 0.664,-0.663 v -0.542 c 0,-0.382 -0.282,-0.663 -0.664,-0.663 -0.382,0 -0.663,0.281 -0.663,0.663 v 0.542 C -0.663,-0.281 -0.382,0 0,0"
             style="fill:#414242;fill-opacity:1;fill-rule:nonzero;stroke:none;stroke-width:0.24852805"
             id="path142"
             inkscape:connector-curvature="0" /></g><g
           id="g144"
           transform="translate(116.1733,248.933)"
           style="stroke-width:0.24852805"><path
             d="m 151.41095,-2.1973993 h 46.507 c 2.998,0 5.438,2.44000002 5.438,5.438 V 61.194601 c 0,2.998 -2.44,5.438 -5.438,5.438 h -57.953 c -2.999,0 -5.438,-2.44 -5.438,-5.438 v -45.923 l 24.624,24.625 -6.925,6.925 c -0.127,0.124 -0.301,0.293 -0.468,0.52 -0.637,0.868 -0.766,1.958 -0.347,2.915 0.418,0.957 1.305,1.6 2.373,1.721 0.258,0.028 0.488,0.028 0.673,0.025 h 0.105 2.546 c 9.336,0.003 18.672,0.004 28.009,0.003 0.358,0 0.698,-0.029 0.998,-0.056 0.121,-0.009 0.243,-0.021 0.364,-0.029 0.431,-0.028 0.837,-0.213 1.142,-0.518 l 0.444,-0.444 c 0.279,-0.278 0.458,-0.64 0.51,-1.03 0.01,-0.077 0.023,-0.154 0.036,-0.231 0.044,-0.254 0.097,-0.572 0.097,-0.933 -0.008,-9.127 -0.023,-18.254 -0.037,-27.381 l -0.006,-3.648 v -0.067 c 0.001,-0.107 0.001,-0.215 -0.004,-0.322 -0.051,-1.202 -0.692,-2.151 -1.757,-2.605 -1.101,-0.467 -2.29,-0.248 -3.181,0.59 -0.258,0.242 -0.506,0.493 -0.754,0.744 l -0.292,0.295 -6.349,6.349 z m 46.507,-3.568 h -50.815 c -0.722,0 -1.372,0.434 -1.649,1.101 -0.276,0.667 -0.123,1.434 0.387,1.945 l 29.225,29.2240003 c 0.67,0.669 1.854,0.669 2.524,0 l 7.508,-7.509 0.004,2.394 c 0.014,9.016 0.028,18.031 0.037,27.047 h -0.022 c -9.336,0.002 -18.672,0 -28.009,-0.002 h -1.447 l 7.276,-7.277 c 0.697,-0.696 0.697,-1.827 0,-2.523 l -28.933,-28.9330003 c -0.51,-0.51 -1.278,-0.664 -1.945,-0.386 -0.667,0.275 -1.101,0.9250003 -1.101,1.6480003 v 50.231 c 0,4.965 4.04,9.006 9.007,9.006 h 57.953 c 4.966,0 9.007,-4.041 9.007,-9.006 V 3.2406007 c 0,-4.965 -4.041,-9.006 -9.007,-9.006"
             style="fill:#414242;fill-opacity:1;fill-rule:nonzero;stroke:none;stroke-width:0.24852805"
             id="path146"
             inkscape:connector-curvature="0" /></g></g></g></g></svg>