<?xml version="1.0" encoding="UTF-8" standalone="no"?>
<!-- Created with Inkscape (http://www.inkscape.org/) -->

<svg
   xmlns:dc="http://purl.org/dc/elements/1.1/"
   xmlns:cc="http://creativecommons.org/ns#"
   xmlns:rdf="http://www.w3.org/1999/02/22-rdf-syntax-ns#"
   xmlns:svg="http://www.w3.org/2000/svg"
   xmlns="http://www.w3.org/2000/svg"
   xmlns:sodipodi="http://sodipodi.sourceforge.net/DTD/sodipodi-0.dtd"
   xmlns:inkscape="http://www.inkscape.org/namespaces/inkscape"
   version="1.1"
   id="svg10"
   xml:space="preserve"
   width="755.90533"
   height="755.90533"
   viewBox="0 0 755.90533 755.90533"
   sodipodi:docname="logonav.svg"
   inkscape:version="0.92.4 (5da689c313, 2019-01-14)"><metadata
     id="metadata16"><rdf:RDF><cc:Work
         rdf:about=""><dc:format>image/svg+xml</dc:format><dc:type
           rdf:resource="http://purl.org/dc/dcmitype/StillImage" /><dc:title></dc:title></cc:Work></rdf:RDF></metadata><defs
     id="defs14"><clipPath
       clipPathUnits="userSpaceOnUse"
       id="clipPath26"><path
         d="M 0,566.929 H 566.929 V 0 H 0 Z"
         id="path24"
         inkscape:connector-curvature="0" /></clipPath></defs><sodipodi:namedview
     pagecolor="#ffffff"
     bordercolor="#666666"
     borderopacity="1"
     objecttolerance="10"
     gridtolerance="10"
     guidetolerance="10"
     inkscape:pageopacity="0"
     inkscape:pageshadow="2"
     inkscape:window-width="1366"
     inkscape:window-height="715"
     id="namedview12"
     showgrid="false"
     inkscape:zoom="0.68262516"
     inkscape:cx="377.95267"
     inkscape:cy="260.75804"
     inkscape:window-x="-8"
     inkscape:window-y="-8"
     inkscape:window-maximized="1"
     inkscape:current-layer="g20" /><g
     id="g18"
     inkscape:groupmode="layer"
     inkscape:label="logo"
     transform="matrix(1.3333333,0,0,-1.3333333,0,755.90533)"><g
       id="g20"><g
         id="g22"
         clip-path="url(#clipPath26)"><g
           id="g28"
           transform="translate(217.4155,298.1889)"><path
             d="m -1.0986996,-15.381795 v 0.122 c 0,7.324 -5.371,13.427 -12.9380004,13.427 -7.568,0 -12.817,-5.981 -12.817,-13.305 v -0.122 c 0,-7.323 5.37,-13.427 12.939,-13.427 7.5670004,0 12.8160004,5.982 12.8160004,13.305 m -35.5810004,0 v 0.122 c 0,12.146 9.581,22.094 22.765,22.094 13.18300036,0 22.6420004,-9.826 22.6420004,-21.972 v -0.122 c 0,-12.144 -9.58100004,-22.094 -22.7640004,-22.094 -13.184,0 -22.643,9.826 -22.643,21.972"
             style="fill:#414242;fill-opacity:1;fill-rule:nonzero;stroke:none"
             id="path30"
             inkscape:connector-curvature="0" /></g><g
           id="g32"
           transform="translate(231.5791,305.3911)"><path
             d="m -1.0986996,-15.381795 c 0,2.563 2.07499996,4.638 4.638,4.638 2.564,0 4.639,-2.075 4.639,-4.638 v -0.366 c 2.1359996,2.746 4.8829996,5.249 9.5809996,5.249 7.02,0 11.108,-4.639 11.108,-12.146 v -16.906 c 0,-2.562 -2.074,-4.639 -4.638,-4.639 -2.563,0 -4.638,2.077 -4.638,4.639 v 13.977 c 0,4.393 -2.075,6.652 -5.615,6.652 -3.539,0 -5.7979996,-2.259 -5.7979996,-6.652 v -13.977 c 0,-2.562 -2.075,-4.639 -4.639,-4.639 -2.56300004,0 -4.638,2.077 -4.638,4.639 z"
             style="fill:#414242;fill-opacity:1;fill-rule:nonzero;stroke:none"
             id="path34"
             inkscape:connector-curvature="0" /></g><g
           id="g36"
           transform="translate(264.9668,293.1235)"><path
             d="m -1.0986996,-15.381795 v 0.122 c 0,9.338 7.141,17.028 17.1489996,17.028 4.944,0 8.424,-1.34199998 11.169,-3.662 0.61,-0.488 1.465,-1.587 1.465,-3.174 0,-2.319 -1.892,-4.15 -4.21,-4.15 -1.222,0 -2.137,0.488 -2.686,0.916 -1.648,1.281 -3.357,2.074 -5.798,2.074 -4.638,0 -7.9339996,-4.089 -7.9339996,-8.91 v -0.122 c 0,-5.005 3.2349996,-9.032 8.2999996,-9.032 2.441,0 4.333,0.854 6.104,2.258 0.487,0.366 1.402,0.854 2.502,0.854 2.196,0 3.906,-1.769 3.906,-3.968 0,-1.219 -0.55,-2.196 -1.343,-2.928 -2.747,-2.503 -6.226,-4.212 -11.596,-4.212 -9.8259996,0 -17.0279996,7.568 -17.0279996,16.906"
             style="fill:#414242;fill-opacity:1;fill-rule:nonzero;stroke:none"
             id="path38"
             inkscape:connector-curvature="0" /></g><g
           id="g40"
           transform="translate(298.7817,317.2309)"><path
             d="m -1.0986996,-15.381795 c 0,2.563 2.07499996,4.639 4.639,4.639 2.563,0 4.637,-2.076 4.637,-4.639 v -36.009 c 0,-2.562 -2.074,-4.638 -4.637,-4.638 -2.56400004,0 -4.639,2.076 -4.639,4.638 z"
             style="fill:#414242;fill-opacity:1;fill-rule:nonzero;stroke:none"
             id="path42"
             inkscape:connector-curvature="0" /></g><g
           id="g44"
           transform="translate(314.1621,305.3911)"><path
             d="m -1.0986996,-15.381795 c 0,2.563 2.07599996,4.638 4.639,4.638 2.563,0 4.638,-2.075 4.638,-4.638 v -24.169 c 0,-2.562 -2.075,-4.639 -4.638,-4.639 -2.56300004,0 -4.639,2.077 -4.639,4.639 z m -0.549,12.084 c 0,2.68600002 2.25899996,4.333 5.188,4.333 2.93,0 5.187,-1.64699998 5.187,-4.333 v -0.122 c 0,-2.686 -2.257,-4.395 -5.187,-4.395 -2.92900004,0 -5.188,1.709 -5.188,4.395 z"
             style="fill:#414242;fill-opacity:1;fill-rule:nonzero;stroke:none"
             id="path46"
             inkscape:connector-curvature="0" /></g><g
           id="g48"
           transform="translate(327.5288,293.1235)"><path
             d="m -1.0986996,-15.381795 v 0.122 c 0,9.338 7.141,17.028 17.1499996,17.028 4.943,0 8.422,-1.34199998 11.169,-3.662 0.61,-0.488 1.465,-1.587 1.465,-3.174 0,-2.319 -1.893,-4.15 -4.212,-4.15 -1.22,0 -2.136,0.488 -2.685,0.916 -1.647,1.281 -3.357,2.074 -5.798,2.074 -4.638,0 -7.9339996,-4.089 -7.9339996,-8.91 v -0.122 c 0,-5.005 3.2349996,-9.032 8.3009996,-9.032 2.441,0 4.333,0.854 6.102,2.258 0.488,0.366 1.404,0.854 2.503,0.854 2.197,0 3.905,-1.769 3.905,-3.968 0,-1.219 -0.549,-2.196 -1.342,-2.928 -2.746,-2.503 -6.225,-4.212 -11.596,-4.212 -9.8259996,0 -17.0279996,7.568 -17.0279996,16.906"
             style="fill:#414242;fill-opacity:1;fill-rule:nonzero;stroke:none"
             id="path50"
             inkscape:connector-curvature="0" /></g><g
           id="g52"
           transform="translate(360.9165,317.2309)"><path
             d="m -1.0986996,-15.381795 c 0,2.563 2.07599996,4.639 4.639,4.639 2.563,0 4.638,-2.076 4.638,-4.639 v -20.263 l 11.5959996,10.987 c 1.343,1.281 2.441,2.074 4.089,2.074 2.503,0 4.09,-2.014 4.09,-4.15 0,-1.586 -0.855,-2.807 -2.136,-4.028 l -7.325,-6.286 8.728,-11.779 c 0.793,-1.099 1.16,-1.953 1.16,-2.991 0,-2.502 -2.014,-4.211 -4.333,-4.211 -1.832,0 -2.93,0.61 -4.028,2.136 l -8.118,11.169 -3.7229996,-3.356 v -5.311 c 0,-2.562 -2.075,-4.638 -4.638,-4.638 -2.56300004,0 -4.639,2.076 -4.639,4.638 z"
             style="fill:#414242;fill-opacity:1;fill-rule:nonzero;stroke:none"
             id="path54"
             inkscape:connector-curvature="0" /></g><g
           id="g56"
           transform="translate(394.0601,295.2602)"><path
             d="m -1.0986996,-15.381795 v 20.079 c 0,2.624 2.07499996,4.699 4.7,4.699 2.624,0 4.699,-2.075 4.699,-4.699 v -19.836 c 0,-6.957 3.4779996,-10.558 9.2159996,-10.558 5.737,0 9.215,3.479 9.215,10.253 v 20.141 c 0,2.624 2.075,4.699 4.7,4.699 2.624,0 4.699,-2.075 4.699,-4.699 v -19.774 c 0,-12.939 -7.262,-19.286 -18.736,-19.286 -11.4739996,0 -18.4929996,6.408 -18.4929996,18.981"
             style="fill:#414242;fill-opacity:1;fill-rule:nonzero;stroke:none"
             id="path58"
             inkscape:connector-curvature="0" /></g><g
           id="g60"
           transform="translate(461.9321,293.2455)"><path
             d="m -1.0986996,-15.381795 v 0.122 c 0,5.432 -3.662,9.033 -7.996,9.033 -4.3330004,0 -7.9330004,-3.601 -7.9330004,-9.033 v -0.122 c 0,-5.432 3.6,-9.032 7.9330004,-9.032 4.334,0 7.996,3.539 7.996,9.032 m -25.0830004,12.146 c 0,2.56300002 2.074,4.637 4.638,4.637 2.563,0 4.637,-2.07399998 4.637,-4.637 v -0.428 c 2.259,3.05200002 5.371,5.31 10.1930004,5.31 7.62899996,0 14.892,-5.981 14.892,-16.906 v -0.122 c 0,-10.924 -7.141,-16.905 -14.892,-16.905 -4.9440004,0 -7.9950004,2.258 -10.1930004,4.882 v -9.765 c 0,-2.564 -2.074,-4.639 -4.637,-4.639 -2.564,0 -4.638,2.075 -4.638,4.639 z"
             style="fill:#414242;fill-opacity:1;fill-rule:nonzero;stroke:none"
             id="path62"
             inkscape:connector-curvature="0" /></g><g
           id="g64"
           transform="translate(187.7964,249.3188)" /><g
           id="g68"
           transform="translate(207.9185,253.9604)" /><g
           id="g72"
           transform="translate(229.4883,248.7768)" /><g
           id="g76"
           transform="translate(234.7407,258.1801)" /><g
           id="g80"
           transform="translate(262.9053,254.2016)" /><g
           id="g84"
           transform="translate(288.8135,253.4389)" /><g
           id="g88"
           transform="translate(302.0063,258.1801)" /><g
           id="g92"
           transform="translate(322.8896,252.1918)" /><g
           id="g96"
           transform="translate(335.7603,249.4799)" /><g
           id="g100"
           transform="translate(356.501,248.7768)" /><g
           id="g104"
           transform="translate(368.8057,252.1918)" /><g
           id="g108"
           transform="translate(381.6348,253.4389)" /><g
           id="g112"
           transform="translate(402.3779,252.1918)" /><g
           id="g116"
           transform="translate(408.3726,258.1801)" /><g
           id="g120"
           transform="translate(417.9214,258.1801)" /><g
           id="g124"
           transform="translate(434.7642,253.9604)" /><g
           id="g128"
           transform="translate(440.3564,258.1801)" /><g
           id="g132"
           transform="translate(446.73,258.1801)" /><g
           id="g136"
           transform="translate(462.8291,252.1918)" /><g
           id="g140"
           transform="translate(469.2651,250.143)"><path
             d="m 0,0 c 0.382,0 0.664,-0.281 0.664,-0.663 v -0.542 c 0,-0.382 -0.282,-0.663 -0.664,-0.663 -0.382,0 -0.663,0.281 -0.663,0.663 v 0.542 C -0.663,-0.281 -0.382,0 0,0"
             style="fill:#414242;fill-opacity:1;fill-rule:nonzero;stroke:none"
             id="path142"
             inkscape:connector-curvature="0" /></g><g
           id="g144"
           transform="translate(116.1733,248.933)"><path
             d="m 0,0 h 46.507 c 2.998,0 5.438,2.44 5.438,5.438 v 57.954 c 0,2.998 -2.44,5.438 -5.438,5.438 h -57.953 c -2.999,0 -5.438,-2.44 -5.438,-5.438 V 17.469 L 7.74,42.094 0.815,49.019 c -0.127,0.124 -0.301,0.293 -0.468,0.52 -0.637,0.868 -0.766,1.958 -0.347,2.915 0.418,0.957 1.305,1.6 2.373,1.721 0.258,0.028 0.488,0.028 0.673,0.025 h 0.105 2.546 c 9.336,0.003 18.672,0.004 28.009,0.003 0.358,0 0.698,-0.029 0.998,-0.056 0.121,-0.009 0.243,-0.021 0.364,-0.029 0.431,-0.028 0.837,-0.213 1.142,-0.518 l 0.444,-0.444 c 0.279,-0.278 0.458,-0.64 0.51,-1.03 0.01,-0.077 0.023,-0.154 0.036,-0.231 0.044,-0.254 0.097,-0.572 0.097,-0.933 C 37.289,41.835 37.274,32.708 37.26,23.581 l -0.006,-3.648 v -0.067 c 0.001,-0.107 0.001,-0.215 -0.004,-0.322 -0.051,-1.202 -0.692,-2.151 -1.757,-2.605 -1.101,-0.467 -2.29,-0.248 -3.181,0.59 -0.258,0.242 -0.506,0.493 -0.754,0.744 l -0.292,0.295 -6.349,6.349 z M 46.507,-3.568 H -4.308 c -0.722,0 -1.372,0.434 -1.649,1.101 -0.276,0.667 -0.123,1.434 0.387,1.945 l 29.225,29.224 c 0.67,0.669 1.854,0.669 2.524,0 l 7.508,-7.509 0.004,2.394 c 0.014,9.016 0.028,18.031 0.037,27.047 h -0.022 c -9.336,0.002 -18.672,0 -28.009,-0.002 H 4.25 l 7.276,-7.277 c 0.697,-0.696 0.697,-1.827 0,-2.523 L -17.407,11.899 c -0.51,-0.51 -1.278,-0.664 -1.945,-0.386 -0.667,0.275 -1.101,0.925 -1.101,1.648 v 50.231 c 0,4.965 4.04,9.006 9.007,9.006 h 57.953 c 4.966,0 9.007,-4.041 9.007,-9.006 V 5.438 c 0,-4.965 -4.041,-9.006 -9.007,-9.006"
             style="fill:#414242;fill-opacity:1;fill-rule:nonzero;stroke:none"
             id="path146"
             inkscape:connector-curvature="0" /></g></g></g></g></svg>