<svg xmlns="http://www.w3.org/2000/svg" xmlns:xlink="http://www.w3.org/1999/xlink" width="400" zoomAndPan="magnify" viewBox="0 0 300 299.999988" height="400" preserveAspectRatio="xMidYMid meet" version="1.0"><defs><clipPath id="e1ca581cf6"><path d="M 187 111 L 197.777344 111 L 197.777344 116 L 187 116 Z M 187 111 " clip-rule="nonzero"/></clipPath><clipPath id="691f51b520"><path d="M 122.816406 111 L 134 111 L 134 116 L 122.816406 116 Z M 122.816406 111 " clip-rule="nonzero"/></clipPath><clipPath id="5fa1c1a0e1"><path d="M 148 160 L 173 160 L 173 176.613281 L 148 176.613281 Z M 148 160 " clip-rule="nonzero"/></clipPath><clipPath id="9133a4c5ce"><path d="M 72 47.113281 L 228 47.113281 L 228 269.914062 L 72 269.914062 Z M 72 47.113281 " clip-rule="nonzero"/></clipPath></defs><path fill="#000000" d="M 159.949219 91.84375 C 158.828125 91.84375 157.90625 90.921875 157.90625 89.792969 L 157.90625 83.367188 C 157.90625 82.238281 158.828125 81.316406 159.949219 81.316406 C 161.074219 81.316406 161.992188 82.238281 161.992188 83.367188 L 161.992188 89.792969 C 161.992188 90.921875 161.074219 91.84375 159.949219 91.84375 Z M 159.949219 91.84375 " fill-opacity="1" fill-rule="nonzero"/><g clip-path="url(#e1ca581cf6)"><path fill="#000000" d="M 195.785156 115.5 L 189.382812 115.5 C 188.261719 115.5 187.339844 114.578125 187.339844 113.449219 C 187.339844 112.320312 188.261719 111.398438 189.382812 111.398438 L 195.785156 111.398438 C 196.910156 111.398438 197.828125 112.320312 197.828125 113.449219 C 197.828125 114.578125 196.910156 115.5 195.785156 115.5 Z M 195.785156 115.5 " fill-opacity="1" fill-rule="nonzero"/></g><g clip-path="url(#691f51b520)"><path fill="#000000" d="M 131.261719 115.5 L 124.859375 115.5 C 123.738281 115.5 122.816406 114.578125 122.816406 113.449219 C 122.816406 112.320312 123.738281 111.398438 124.859375 111.398438 L 131.261719 111.398438 C 132.386719 111.398438 133.304688 112.320312 133.304688 113.449219 C 133.304688 114.578125 132.386719 115.5 131.261719 115.5 Z M 131.261719 115.5 " fill-opacity="1" fill-rule="nonzero"/></g><path fill="#000000" d="M 139.269531 100.636719 C 138.75 100.636719 138.226562 100.433594 137.828125 100.03125 L 133.304688 95.492188 C 132.507812 94.691406 132.507812 93.390625 133.304688 92.59375 C 134.101562 91.792969 135.398438 91.792969 136.195312 92.59375 L 140.71875 97.132812 C 141.515625 97.933594 141.515625 99.234375 140.71875 100.03125 C 140.3125 100.433594 139.789062 100.636719 139.269531 100.636719 Z M 139.269531 100.636719 " fill-opacity="1" fill-rule="nonzero"/><path fill="#000000" d="M 181.089844 100.636719 C 180.570312 100.636719 180.050781 100.433594 179.652344 100.03125 C 178.855469 99.234375 178.855469 97.933594 179.652344 97.132812 L 184.175781 92.59375 C 184.972656 91.792969 186.269531 91.792969 187.066406 92.59375 C 187.863281 93.390625 187.863281 94.691406 187.066406 95.492188 L 182.542969 100.03125 C 182.144531 100.433594 181.621094 100.636719 181.089844 100.636719 Z M 181.089844 100.636719 " fill-opacity="1" fill-rule="nonzero"/><path fill="#000000" d="M 173.492188 149.597656 L 147.550781 149.597656 C 146.429688 149.597656 145.511719 148.675781 145.511719 147.550781 L 145.511719 146.433594 C 145.511719 141.992188 144.007812 137.597656 141.167969 133.703125 C 138.148438 129.5625 136.542969 124.652344 136.542969 119.507812 C 136.542969 112.894531 139.300781 106.5 144.109375 101.96875 C 148.980469 97.378906 155.363281 95.074219 162.054688 95.492188 C 174.441406 96.273438 184.296875 106.644531 184.5 119.105469 C 184.59375 124.632812 182.867188 129.859375 179.507812 134.214844 C 176.953125 137.535156 175.546875 141.890625 175.546875 146.484375 L 175.546875 147.558594 C 175.535156 148.6875 174.625 149.597656 173.492188 149.597656 Z M 149.585938 145.5 L 171.480469 145.5 C 171.675781 140.363281 173.359375 135.496094 176.28125 131.703125 C 179.070312 128.085938 180.5 123.75 180.425781 119.167969 C 180.253906 108.828125 172.082031 100.21875 161.808594 99.582031 C 156.253906 99.234375 150.964844 101.140625 146.917969 104.953125 C 142.875 108.765625 140.636719 113.941406 140.636719 119.507812 C 140.636719 123.78125 141.964844 127.851562 144.46875 131.285156 C 147.625 135.617188 149.378906 140.519531 149.585938 145.5 Z M 149.585938 145.5 " fill-opacity="1" fill-rule="nonzero"/><path fill="#000000" d="M 173.738281 157.5 L 147.316406 157.5 C 146.195312 157.5 145.273438 156.578125 145.273438 155.453125 C 145.273438 154.324219 146.195312 153.402344 147.316406 153.402344 L 173.726562 153.402344 C 174.851562 153.402344 175.769531 154.324219 175.769531 155.453125 C 175.769531 156.578125 174.859375 157.5 173.738281 157.5 Z M 173.738281 157.5 " fill-opacity="1" fill-rule="nonzero"/><g clip-path="url(#5fa1c1a0e1)"><path fill="#000000" d="M 160.523438 176.113281 C 154.058594 176.113281 148.789062 170.835938 148.789062 164.335938 L 148.789062 162.769531 C 148.789062 161.640625 149.707031 160.71875 150.832031 160.71875 L 170.203125 160.71875 C 171.328125 160.71875 172.246094 161.640625 172.246094 162.769531 L 172.246094 164.335938 C 172.257812 170.835938 166.996094 176.113281 160.523438 176.113281 Z M 152.894531 164.820312 C 153.140625 168.828125 156.46875 172.015625 160.523438 172.015625 C 164.578125 172.015625 167.90625 168.828125 168.152344 164.820312 Z M 152.894531 164.820312 " fill-opacity="1" fill-rule="nonzero"/></g><path fill="#000000" d="M 164.453125 149.597656 L 156.601562 149.597656 C 155.660156 149.597656 154.84375 148.964844 154.621094 148.050781 L 148.859375 125.03125 C 148.65625 124.222656 148.960938 123.371094 149.625 122.878906 C 150.289062 122.386719 151.1875 122.347656 151.902344 122.777344 L 155.457031 124.9375 L 158.714844 118.5625 C 159.0625 117.878906 159.765625 117.445312 160.53125 117.445312 C 161.296875 117.445312 162.003906 117.878906 162.351562 118.5625 L 165.609375 124.9375 L 169.164062 122.777344 C 169.867188 122.347656 170.765625 122.386719 171.441406 122.878906 C 172.105469 123.371094 172.410156 124.222656 172.207031 125.03125 L 166.445312 148.050781 C 166.210938 148.964844 165.394531 149.597656 164.453125 149.597656 Z M 158.195312 145.5 L 162.871094 145.5 L 167.027344 128.875 L 165.855469 129.59375 C 165.363281 129.890625 164.78125 129.972656 164.238281 129.816406 C 163.699219 129.664062 163.238281 129.285156 162.972656 128.78125 L 160.53125 123.996094 L 158.09375 128.78125 C 157.835938 129.285156 157.378906 129.664062 156.824219 129.816406 C 156.285156 129.972656 155.691406 129.890625 155.210938 129.59375 L 154.039062 128.875 Z M 158.195312 145.5 " fill-opacity="1" fill-rule="nonzero"/><g clip-path="url(#9133a4c5ce)"><path fill="#000000" d="M 78.808594 247.925781 C 79.90625 249.058594 81.101562 250.070312 82.402344 250.960938 C 83.703125 251.855469 85.078125 252.605469 86.53125 253.21875 C 87.980469 253.832031 89.480469 254.296875 91.023438 254.605469 C 92.570312 254.917969 94.132812 255.070312 95.707031 255.0625 L 106.144531 255.0625 L 106.144531 267.0625 C 106.144531 267.289062 106.171875 267.515625 106.230469 267.734375 C 106.285156 267.957031 106.367188 268.164062 106.476562 268.367188 C 106.585938 268.566406 106.71875 268.75 106.875 268.914062 C 107.03125 269.082031 107.207031 269.226562 107.398438 269.351562 C 107.589844 269.472656 107.792969 269.570312 108.011719 269.640625 C 108.226562 269.710938 108.449219 269.753906 108.675781 269.769531 C 108.902344 269.785156 109.128906 269.773438 109.351562 269.730469 C 109.578125 269.6875 109.792969 269.621094 110 269.523438 L 123.511719 263.257812 L 137.027344 269.523438 C 137.234375 269.621094 137.449219 269.6875 137.671875 269.730469 C 137.894531 269.773438 138.121094 269.785156 138.347656 269.769531 C 138.578125 269.753906 138.796875 269.710938 139.015625 269.640625 C 139.230469 269.570312 139.4375 269.472656 139.628906 269.347656 C 139.820312 269.226562 139.992188 269.082031 140.148438 268.914062 C 140.304688 268.75 140.4375 268.566406 140.546875 268.367188 C 140.65625 268.164062 140.738281 267.957031 140.796875 267.734375 C 140.851562 267.515625 140.882812 267.289062 140.882812 267.0625 L 140.882812 234.191406 L 209.417969 234.191406 C 209.527344 236.105469 209.878906 237.972656 210.472656 239.792969 L 149.113281 239.792969 C 148.753906 239.792969 148.40625 239.863281 148.074219 240 C 147.742188 240.136719 147.449219 240.335938 147.195312 240.589844 C 146.941406 240.84375 146.746094 241.136719 146.605469 241.46875 C 146.46875 241.800781 146.398438 242.148438 146.398438 242.507812 C 146.398438 242.867188 146.46875 243.214844 146.605469 243.546875 C 146.746094 243.878906 146.941406 244.175781 147.195312 244.429688 C 147.449219 244.683594 147.742188 244.878906 148.074219 245.019531 C 148.40625 245.15625 148.753906 245.222656 149.113281 245.222656 L 220.035156 245.222656 C 220.363281 245.226562 220.679688 245.289062 220.980469 245.414062 C 221.285156 245.539062 221.550781 245.71875 221.785156 245.949219 C 222.015625 246.179688 222.195312 246.449219 222.320312 246.75 C 222.445312 247.054688 222.507812 247.371094 222.507812 247.699219 L 222.507812 249.632812 L 149.113281 249.632812 C 148.753906 249.632812 148.40625 249.703125 148.074219 249.839844 C 147.742188 249.976562 147.449219 250.171875 147.195312 250.429688 C 146.941406 250.683594 146.746094 250.976562 146.605469 251.308594 C 146.46875 251.640625 146.398438 251.988281 146.398438 252.347656 C 146.398438 252.707031 146.46875 253.054688 146.605469 253.386719 C 146.746094 253.71875 146.941406 254.015625 147.195312 254.269531 C 147.449219 254.523438 147.742188 254.71875 148.074219 254.855469 C 148.40625 254.996094 148.753906 255.0625 149.113281 255.0625 L 225.222656 255.0625 C 225.582031 255.0625 225.929688 254.996094 226.261719 254.855469 C 226.59375 254.71875 226.886719 254.523438 227.140625 254.269531 C 227.394531 254.015625 227.59375 253.71875 227.730469 253.386719 C 227.867188 253.054688 227.9375 252.707031 227.9375 252.347656 L 227.9375 247.699219 C 227.9375 247.179688 227.886719 246.664062 227.785156 246.15625 C 227.683594 245.648438 227.53125 245.152344 227.332031 244.675781 C 227.132812 244.195312 226.890625 243.738281 226.601562 243.308594 C 226.3125 242.878906 225.988281 242.476562 225.621094 242.113281 C 225.253906 241.746094 224.855469 241.417969 224.421875 241.128906 C 223.992188 240.839844 223.539062 240.597656 223.058594 240.398438 C 222.578125 240.199219 222.085938 240.046875 221.578125 239.945312 C 221.070312 239.84375 220.554688 239.792969 220.035156 239.792969 L 216.3125 239.792969 C 213.480469 233.683594 215.355469 227.125 216.445312 224.277344 L 220.035156 224.277344 C 220.554688 224.277344 221.066406 224.222656 221.574219 224.121094 C 222.082031 224.019531 222.578125 223.871094 223.054688 223.671875 C 223.535156 223.472656 223.992188 223.230469 224.421875 222.941406 C 224.851562 222.652344 225.25 222.324219 225.617188 221.957031 C 225.984375 221.589844 226.3125 221.191406 226.601562 220.761719 C 226.890625 220.328125 227.132812 219.875 227.332031 219.394531 C 227.53125 218.914062 227.679688 218.421875 227.78125 217.914062 C 227.882812 217.40625 227.933594 216.890625 227.933594 216.371094 L 227.933594 49.828125 C 227.933594 49.46875 227.867188 49.121094 227.726562 48.789062 C 227.589844 48.457031 227.394531 48.160156 227.140625 47.90625 C 226.886719 47.652344 226.59375 47.457031 226.257812 47.316406 C 225.925781 47.179688 225.582031 47.113281 225.222656 47.113281 L 96.140625 47.113281 C 96.09375 47.113281 96.050781 47.125 96.003906 47.125 C 95.960938 47.128906 95.921875 47.121094 95.878906 47.125 C 93.25 47.375 90.722656 48.023438 88.296875 49.070312 C 85.871094 50.121094 83.667969 51.519531 81.6875 53.261719 C 80.171875 54.59375 78.816406 56.070312 77.621094 57.691406 C 76.425781 59.316406 75.414062 61.046875 74.589844 62.886719 C 73.765625 64.726562 73.148438 66.636719 72.734375 68.609375 C 72.324219 70.582031 72.125 72.578125 72.140625 74.59375 L 72.140625 230.898438 C 72.097656 232.46875 72.210938 234.027344 72.480469 235.574219 C 72.75 237.121094 73.171875 238.625 73.746094 240.089844 C 74.316406 241.550781 75.03125 242.941406 75.882812 244.261719 C 76.734375 245.582031 77.710938 246.800781 78.808594 247.925781 Z M 135.453125 262.808594 L 124.65625 257.800781 C 123.894531 257.445312 123.132812 257.445312 122.371094 257.800781 L 111.574219 262.808594 L 111.574219 234.191406 L 135.457031 234.191406 Z M 209.667969 228.761719 L 98.605469 228.761719 C 98.246094 228.761719 97.898438 228.832031 97.566406 228.96875 C 97.234375 229.105469 96.941406 229.300781 96.6875 229.558594 C 96.433594 229.8125 96.238281 230.105469 96.097656 230.4375 C 95.960938 230.769531 95.890625 231.117188 95.890625 231.476562 C 95.890625 231.835938 95.960938 232.183594 96.097656 232.515625 C 96.238281 232.847656 96.433594 233.140625 96.6875 233.398438 C 96.941406 233.652344 97.234375 233.847656 97.566406 233.984375 C 97.898438 234.125 98.246094 234.191406 98.605469 234.191406 L 106.144531 234.191406 L 106.144531 239.792969 L 95.707031 239.792969 C 95.183594 239.792969 94.664062 239.742188 94.148438 239.636719 C 93.632812 239.53125 93.136719 239.375 92.652344 239.167969 C 92.167969 238.960938 91.714844 238.707031 91.28125 238.40625 C 90.851562 238.105469 90.453125 237.765625 90.09375 237.386719 C 89.730469 237.003906 89.410156 236.59375 89.132812 236.144531 C 88.851562 235.699219 88.621094 235.230469 88.4375 234.738281 C 88.257812 234.246094 88.125 233.742188 88.042969 233.222656 C 87.964844 232.703125 87.9375 232.179688 87.960938 231.65625 C 88 231.15625 88.085938 230.664062 88.21875 230.179688 C 88.347656 229.695312 88.523438 229.226562 88.746094 228.773438 C 88.964844 228.324219 89.222656 227.894531 89.523438 227.492188 C 89.824219 227.089844 90.160156 226.71875 90.527344 226.378906 C 90.898438 226.039062 91.296875 225.738281 91.722656 225.472656 C 92.148438 225.210938 92.597656 224.988281 93.066406 224.808594 C 93.535156 224.628906 94.015625 224.492188 94.507812 224.402344 C 95.003906 224.3125 95.5 224.273438 96.003906 224.277344 L 210.691406 224.277344 C 210.238281 225.746094 209.894531 227.242188 209.667969 228.761719 Z M 222.507812 216.371094 C 222.507812 216.699219 222.445312 217.015625 222.320312 217.316406 C 222.195312 217.621094 222.015625 217.886719 221.785156 218.121094 C 221.550781 218.351562 221.285156 218.53125 220.980469 218.65625 C 220.679688 218.78125 220.363281 218.84375 220.035156 218.84375 L 96.003906 218.84375 C 95.152344 218.835938 94.3125 218.90625 93.476562 219.054688 C 92.640625 219.207031 91.824219 219.433594 91.03125 219.742188 C 90.242188 220.046875 89.484375 220.425781 88.765625 220.875 C 88.046875 221.328125 87.375 221.84375 86.753906 222.421875 C 86.132812 223.003906 85.570312 223.636719 85.070312 224.320312 C 84.570312 225.007812 84.140625 225.738281 83.78125 226.507812 C 83.417969 227.277344 83.132812 228.074219 82.925781 228.894531 C 82.71875 229.71875 82.589844 230.554688 82.539062 231.40625 C 82.496094 232.296875 82.542969 233.183594 82.683594 234.066406 C 82.820312 234.949219 83.042969 235.804688 83.355469 236.644531 C 83.667969 237.480469 84.058594 238.277344 84.53125 239.035156 C 85.003906 239.789062 85.550781 240.492188 86.164062 241.136719 C 86.78125 241.785156 87.453125 242.363281 88.1875 242.871094 C 88.921875 243.378906 89.695312 243.8125 90.515625 244.164062 C 91.335938 244.515625 92.183594 244.78125 93.058594 244.957031 C 93.933594 245.136719 94.816406 245.226562 95.707031 245.226562 L 106.144531 245.226562 L 106.144531 249.636719 L 95.707031 249.636719 C 95.101562 249.636719 94.5 249.605469 93.898438 249.546875 C 93.292969 249.484375 92.695312 249.394531 92.105469 249.273438 C 91.511719 249.15625 90.925781 249.003906 90.347656 248.828125 C 89.769531 248.648438 89.203125 248.441406 88.644531 248.203125 C 88.085938 247.96875 87.542969 247.707031 87.011719 247.417969 C 86.480469 247.125 85.964844 246.8125 85.464844 246.46875 C 84.96875 246.128906 84.484375 245.761719 84.023438 245.371094 C 83.558594 244.980469 83.117188 244.570312 82.695312 244.136719 C 82.273438 243.703125 81.875 243.25 81.5 242.773438 C 81.121094 242.300781 80.769531 241.808594 80.441406 241.300781 C 80.117188 240.789062 79.816406 240.265625 79.539062 239.726562 C 79.265625 239.1875 79.019531 238.636719 78.796875 238.070312 C 78.578125 237.507812 78.386719 236.933594 78.226562 236.351562 C 78.0625 235.769531 77.929688 235.179688 77.828125 234.582031 C 77.722656 233.984375 77.652344 233.386719 77.605469 232.78125 C 77.5625 232.175781 77.550781 231.574219 77.566406 230.96875 C 77.835938 221.238281 86.167969 213.324219 96.140625 213.324219 L 222.507812 213.324219 Z M 85.234375 57.371094 C 87.621094 55.273438 90.351562 53.832031 93.425781 53.046875 L 93.425781 197.585938 C 93.425781 197.945312 93.496094 198.292969 93.632812 198.625 C 93.773438 198.957031 93.96875 199.25 94.222656 199.507812 C 94.476562 199.761719 94.769531 199.957031 95.101562 200.09375 C 95.433594 200.234375 95.78125 200.300781 96.140625 200.300781 C 96.5 200.300781 96.847656 200.234375 97.179688 200.09375 C 97.511719 199.957031 97.804688 199.761719 98.058594 199.507812 C 98.316406 199.25 98.511719 198.957031 98.648438 198.625 C 98.785156 198.292969 98.855469 197.945312 98.855469 197.585938 L 98.855469 52.542969 L 222.507812 52.542969 L 222.507812 207.890625 L 96.140625 207.890625 C 94.367188 207.894531 92.617188 208.089844 90.886719 208.476562 C 89.15625 208.863281 87.488281 209.4375 85.886719 210.191406 C 84.28125 210.945312 82.777344 211.863281 81.375 212.949219 C 79.972656 214.035156 78.703125 215.257812 77.570312 216.621094 L 77.570312 74.59375 C 77.550781 72.96875 77.710938 71.359375 78.039062 69.765625 C 78.371094 68.171875 78.863281 66.632812 79.527344 65.148438 C 80.1875 63.660156 81 62.261719 81.960938 60.953125 C 82.925781 59.640625 84.015625 58.445312 85.234375 57.371094 Z M 85.234375 57.371094 " fill-opacity="1" fill-rule="nonzero"/></g></svg>