<?xml version="1.0" encoding="UTF-8" standalone="no"?>
<svg
   xmlns:dc="http://purl.org/dc/elements/1.1/"
   xmlns:cc="http://creativecommons.org/ns#"
   xmlns:rdf="http://www.w3.org/1999/02/22-rdf-syntax-ns#"
   xmlns:svg="http://www.w3.org/2000/svg"
   xmlns="http://www.w3.org/2000/svg"
   viewBox="0 0 500.65332 102.41333"
   height="102.41333"
   width="500.65332"
   xml:space="preserve"
   id="svg2"
   version="1.1"><metadata
     id="metadata8"><rdf:RDF><cc:Work
         rdf:about=""><dc:format>image/svg+xml</dc:format><dc:type
           rdf:resource="http://purl.org/dc/dcmitype/StillImage" /></cc:Work></rdf:RDF></metadata><defs
     id="defs6" /><g
     transform="matrix(1.3333333,0,0,-1.3333333,0,102.41333)"
     id="g10"><g
       transform="scale(0.1)"
       id="g12"><path
         id="path14"
         style="fill:#3c3c44;fill-opacity:1;fill-rule:nonzero;stroke:none"
         d="m 1216.95,531.293 v 1.219 c 0,73.242 -53.71,134.269 -129.38,134.269 -75.68,0 -128.164,-59.804 -128.164,-133.047 v -1.222 c 0,-73.231 53.694,-134.266 129.384,-134.266 75.67,0 128.16,59.813 128.16,133.047 z m -355.805,0 v 1.219 c 0,121.457 95.816,220.937 227.645,220.937 131.83,0 226.43,-98.261 226.43,-219.715 v -1.222 c 0,-121.446 -95.82,-220.938 -227.65,-220.938 -131.832,0 -226.425,98.262 -226.425,219.719" /><path
         id="path16"
         style="fill:#3c3c44;fill-opacity:1;fill-rule:nonzero;stroke:none"
         d="m 1358.59,603.313 c 0,25.636 20.75,46.378 46.38,46.378 25.64,0 46.39,-20.742 46.39,-46.378 v -3.661 c 21.36,27.461 48.83,52.489 95.81,52.489 70.2,0 111.08,-46.387 111.08,-121.453 V 361.625 c 0,-25.625 -20.74,-46.387 -46.38,-46.387 -25.63,0 -46.38,20.762 -46.38,46.387 v 139.766 c 0,43.933 -20.75,66.523 -56.15,66.523 -35.39,0 -57.98,-22.59 -57.98,-66.523 V 361.625 c 0,-25.625 -20.75,-46.387 -46.39,-46.387 -25.63,0 -46.38,20.762 -46.38,46.387 v 241.688" /><path
         id="path18"
         style="fill:#3c3c44;fill-opacity:1;fill-rule:nonzero;stroke:none"
         d="m 1692.47,480.637 v 1.222 c 0,93.379 71.4,170.282 171.49,170.282 49.44,0 84.23,-13.426 111.69,-36.621 6.1,-4.883 14.65,-15.868 14.65,-31.739 0,-23.191 -18.92,-41.504 -42.11,-41.504 -12.21,0 -21.36,4.883 -26.85,9.161 -16.49,12.812 -33.57,20.742 -57.98,20.742 -46.39,0 -79.35,-40.887 -79.35,-89.102 v -1.219 c 0,-50.05 32.35,-90.324 83.01,-90.324 24.41,0 43.32,8.547 61.03,22.578 4.88,3.664 14.03,8.547 25.02,8.547 21.97,0 39.06,-17.695 39.06,-39.68 0,-12.195 -5.49,-21.96 -13.42,-29.285 -27.47,-25.031 -62.26,-42.121 -115.96,-42.121 -98.27,0 -170.28,75.684 -170.28,169.063" /><path
         id="path20"
         style="fill:#3c3c44;fill-opacity:1;fill-rule:nonzero;stroke:none"
         d="m 2030.62,721.711 c 0,25.637 20.75,46.387 46.38,46.387 25.63,0 46.38,-20.75 46.38,-46.387 V 361.625 c 0,-25.625 -20.75,-46.387 -46.38,-46.387 -25.63,0 -46.38,20.762 -46.38,46.387 v 360.086" /><path
         id="path22"
         style="fill:#3c3c44;fill-opacity:1;fill-rule:nonzero;stroke:none"
         d="m 2184.42,603.313 c 0,25.636 20.76,46.378 46.39,46.378 25.63,0 46.38,-20.742 46.38,-46.378 V 361.625 c 0,-25.625 -20.75,-46.387 -46.38,-46.387 -25.63,0 -46.39,20.762 -46.39,46.387 z m -5.49,120.839 c 0,26.856 22.59,43.332 51.88,43.332 29.3,0 51.87,-16.476 51.87,-43.332 v -1.218 c 0,-26.856 -22.57,-43.946 -51.87,-43.946 -29.29,0 -51.88,17.09 -51.88,43.946 v 1.218" /><path
         id="path24"
         style="fill:#3c3c44;fill-opacity:1;fill-rule:nonzero;stroke:none"
         d="m 2318.09,480.637 v 1.222 c 0,93.379 71.4,170.282 171.5,170.282 49.43,0 84.22,-13.426 111.69,-36.621 6.1,-4.883 14.65,-15.868 14.65,-31.739 0,-23.191 -18.93,-41.504 -42.12,-41.504 -12.2,0 -21.36,4.883 -26.85,9.161 -16.48,12.812 -33.57,20.742 -57.98,20.742 -46.39,0 -79.35,-40.887 -79.35,-89.102 v -1.219 c 0,-50.05 32.35,-90.324 83.02,-90.324 24.41,0 43.32,8.547 61.02,22.578 4.88,3.664 14.04,8.547 25.02,8.547 21.98,0 39.06,-17.695 39.06,-39.68 0,-12.195 -5.49,-21.96 -13.43,-29.285 -27.45,-25.031 -62.24,-42.121 -115.95,-42.121 -98.27,0 -170.28,75.684 -170.28,169.063" /><path
         id="path26"
         style="fill:#3c3c44;fill-opacity:1;fill-rule:nonzero;stroke:none"
         d="m 2651.96,721.711 c 0,25.637 20.76,46.387 46.39,46.387 25.64,0 46.39,-20.75 46.39,-46.387 V 519.086 l 115.95,109.863 c 13.43,12.813 24.41,20.742 40.9,20.742 25.02,0 40.89,-20.136 40.89,-41.496 0,-15.867 -8.54,-28.074 -21.36,-40.281 l -73.24,-62.863 87.28,-117.793 c 7.92,-10.985 11.59,-19.531 11.59,-29.903 0,-25.019 -20.14,-42.117 -43.33,-42.117 -18.32,0 -29.3,6.102 -40.28,21.367 l -81.18,111.688 -37.22,-33.563 v -53.105 c 0,-25.625 -20.75,-46.387 -46.39,-46.387 -25.63,0 -46.39,20.762 -46.39,46.387 v 360.086" /><path
         id="path28"
         style="fill:#3c3c44;fill-opacity:1;fill-rule:nonzero;stroke:none"
         d="m 2983.4,502.004 v 200.793 c 0,26.238 20.75,46.992 47,46.992 26.24,0 46.99,-20.754 46.99,-46.992 V 504.438 c 0,-69.571 34.78,-105.586 92.16,-105.586 57.37,0 92.15,34.793 92.15,102.539 v 201.406 c 0,26.238 20.75,46.992 47,46.992 26.24,0 46.99,-20.754 46.99,-46.992 V 505.051 c 0,-129.383 -72.62,-192.86 -187.36,-192.86 -114.74,0 -184.93,64.082 -184.93,189.813" /><path
         id="path30"
         style="fill:#3c3c44;fill-opacity:1;fill-rule:nonzero;stroke:none"
         d="m 3662.12,481.859 v 1.219 c 0,54.317 -36.62,90.332 -79.96,90.332 -43.33,0 -79.33,-36.015 -79.33,-90.332 v -1.219 c 0,-54.316 36,-90.324 79.33,-90.324 43.34,0 79.96,35.391 79.96,90.324 z m -250.83,121.454 c 0,25.636 20.74,46.378 46.38,46.378 25.63,0 46.37,-20.742 46.37,-46.378 v -4.278 c 22.59,30.52 53.72,53.106 101.93,53.106 76.29,0 148.92,-59.813 148.92,-169.063 v -1.219 c 0,-109.238 -71.41,-169.054 -148.92,-169.054 -49.44,0 -79.95,22.578 -101.93,48.82 v -97.648 c 0,-25.633 -20.74,-46.387 -46.37,-46.387 -25.64,0 -46.38,20.754 -46.38,46.387 v 339.336" /><path
         id="path32"
         style="fill:#3c3c44;fill-opacity:1;fill-rule:nonzero;stroke:none"
         d="m 920.762,42.5898 c 39.183,0 63.898,26.7305 63.898,60.2852 v 0.398 c 0,33.352 -24.715,60.676 -63.898,60.676 H 884.398 V 42.5898 Z M 873.945,168.371 c 0,2.813 2.418,5.227 5.231,5.227 h 41.586 c 44.207,0 74.746,-30.344 74.746,-69.922 v -0.403 c 0,-39.5777 -30.539,-70.3199 -74.746,-70.3199 h -41.586 c -2.813,0 -5.231,2.4102 -5.231,5.2227 V 168.371" /><path
         id="path34"
         style="fill:#3c3c44;fill-opacity:1;fill-rule:nonzero;stroke:none"
         d="m 1121.98,89.0078 c -1.41,20.6912 -13.26,39.7852 -36.76,39.7852 -20.3,0 -35.97,-17.082 -37.78,-39.7852 z m -34.76,-58.4687 c -26.92,0 -50.23,21.4961 -50.23,53.4375 v 0.4101 c 0,29.7383 20.9,53.4493 48.62,53.4493 28.74,0 47.02,-23.711 47.02,-53.0469 0,-2.4141 -2.41,-4.6211 -4.83,-4.6211 h -80.36 c 1.81,-25.5157 20.09,-40.3789 40.18,-40.3789 14.67,0 24.92,6.0234 33.16,14.0507 0.8,0.8125 1.8,1.418 3.22,1.418 2.6,0 4.81,-2.0117 4.81,-4.6211 0,-1.0039 -0.4,-2.2148 -1.61,-3.4258 -10.04,-10.039 -21.5,-16.6718 -39.98,-16.6718" /><path
         id="path36"
         style="fill:#3c3c44;fill-opacity:1;fill-rule:nonzero;stroke:none"
         d="m 1337.68,37.1719 c 0,-2.8125 -2.01,-5.0196 -4.82,-5.0196 -2.81,0 -5.02,2.0118 -5.02,5.0196 v 14.8633 c -6.83,-12.0508 -18.28,-21.4961 -36.97,-21.4961 -25.92,0 -40.99,17.6757 -40.99,42.1992 v 58.4647 c 0,3.02 2.02,5.031 4.83,5.031 2.81,0 5.02,-2.011 5.02,-5.031 v -56.66 c 0,-21.0938 11.85,-34.961 32.55,-34.961 20.09,0 35.56,15.2657 35.56,36.5625 v 55.0585 c 0,3.02 2.01,5.031 4.82,5.031 2.82,0 5.02,-2.011 5.02,-5.031 V 37.1719" /><path
         id="path38"
         style="fill:#3c3c44;fill-opacity:1;fill-rule:nonzero;stroke:none"
         d="m 1390.21,131.203 c 0,2.813 2,5.031 4.82,5.031 2.81,0 5.02,-2.011 5.02,-5.031 v -14.07 c 6.63,10.652 15.87,20.703 34.16,20.703 17.88,0 28.93,-10.254 34.56,-22.102 6.63,11.446 17.68,22.102 36.97,22.102 24.31,0 39.38,-17.082 39.38,-42.8047 V 37.1719 c 0,-3.0078 -2.01,-5.0196 -4.83,-5.0196 -2.81,0 -5.02,2.0118 -5.02,5.0196 V 93.832 c 0,22.098 -11.45,34.961 -30.34,34.961 -17.27,0 -32.35,-13.262 -32.35,-36.1719 V 37.1719 c 0,-3.0078 -2.01,-5.0196 -4.82,-5.0196 -2.81,0 -5.02,2.0118 -5.02,5.0196 v 57.2656 c 0,21.2965 -11.66,34.3555 -29.94,34.3555 -18.29,0 -32.75,-16.074 -32.75,-36.7696 V 37.1719 c 0,-3.0078 -2.01,-5.0196 -4.82,-5.0196 -2.82,0 -5.02,2.0118 -5.02,5.0196 v 94.0311" /><path
         id="path40"
         style="fill:#3c3c44;fill-opacity:1;fill-rule:nonzero;stroke:none"
         d="m 1671.85,91.418 v 77.766 c 0,2.812 2.41,5.214 5.23,5.214 2.81,0 5.22,-2.402 5.22,-5.214 V 92.4258 c 0,-33.1563 17.88,-52.2461 47.61,-52.2461 28.53,0 46.82,17.2851 46.82,51.2383 v 77.766 c 0,2.812 2.42,5.214 5.23,5.214 2.81,0 5.22,-2.402 5.22,-5.214 V 92.6211 c 0,-40.3828 -23.51,-61.8867 -57.66,-61.8867 -33.76,0 -57.67,21.3008 -57.67,60.6836" /><path
         id="path42"
         style="fill:#3c3c44;fill-opacity:1;fill-rule:nonzero;stroke:none"
         d="m 1930.93,83.793 v 0.3906 c 0,26.9214 -18.68,44.2074 -40.18,44.2074 -21.3,0 -41.79,-17.879 -41.79,-44.0043 v -0.4101 c 0,-26.3164 20.49,-43.9922 41.79,-43.9922 22.3,0 40.18,16.2773 40.18,43.8086 z m -91.21,47.41 c 0,3.02 2,5.031 4.82,5.031 2.81,0 5.02,-2.011 5.02,-5.031 v -18.691 c 8.84,13.468 21.9,25.324 42.19,25.324 24.72,0 49.84,-19.895 49.84,-53.2422 v -0.4102 c 0,-33.3516 -25.12,-53.6445 -49.84,-53.6445 -20.49,0 -33.75,11.6523 -42.19,24.5117 V 5.02344 c 0,-3.00781 -2.01,-5.01953375 -4.82,-5.01953375 -2.82,0 -5.02,2.01172375 -5.02,5.01953375 V 131.203" /><path
         id="path44"
         style="fill:#3c3c44;fill-opacity:1;fill-rule:nonzero;stroke:none"
         d="m 2062.86,131.203 c 0,2.813 2,5.031 4.82,5.031 2.81,0 5.03,-2.011 5.03,-5.031 v -14.871 c 6.83,12.059 18.28,21.504 36.96,21.504 25.92,0 40.99,-17.688 40.99,-42.1993 V 37.1719 c 0,-3.0078 -2.01,-5.0196 -4.82,-5.0196 -2.82,0 -5.02,2.0118 -5.02,5.0196 V 93.832 c 0,21.094 -11.85,34.961 -32.55,34.961 -20.1,0 -35.56,-15.273 -35.56,-36.5742 V 37.1719 c 0,-3.0078 -2.02,-5.0196 -4.83,-5.0196 -2.81,0 -5.02,2.0118 -5.02,5.0196 v 94.0311" /><path
         id="path46"
         style="fill:#3c3c44;fill-opacity:1;fill-rule:nonzero;stroke:none"
         d="m 2271.7,71.3203 v 11.6602 c -8.65,2.207 -20.09,4.6289 -34.76,4.6289 -21.7,0 -33.76,-9.6485 -33.76,-23.9141 V 63.293 c 0,-14.8711 14.07,-23.5039 29.74,-23.5039 20.89,0 38.78,12.8593 38.78,31.5312 z m -78.96,-8.6328 v 0.4023 c 0,21.2969 18.28,33.3594 44.8,33.3594 14.27,0 24.11,-1.8164 33.96,-4.4258 v 4.4258 c 0,20.6838 -12.66,31.3358 -33.76,31.3358 -11.25,0 -20.7,-2.812 -29.13,-6.836 -0.81,-0.39 -1.61,-0.594 -2.21,-0.594 -2.41,0 -4.63,2.208 -4.63,4.618 0,2.414 1.82,4.015 2.82,4.425 10.45,4.618 20.69,7.637 33.75,7.637 13.87,0 24.92,-3.82 32.35,-11.262 6.84,-6.835 10.45,-16.269 10.45,-28.9332 V 37.1719 c 0,-3.0078 -2.01,-5.0196 -4.82,-5.0196 -2.81,0 -4.82,2.0118 -4.82,5.0196 v 12.8515 c -7.04,-9.8437 -19.69,-19.4843 -39.18,-19.4843 -19.09,0 -39.58,10.8515 -39.58,32.1484" /><path
         id="path48"
         style="fill:#3c3c44;fill-opacity:1;fill-rule:nonzero;stroke:none"
         d="m 2400.4,44.2031 c -0.8,0.6055 -1.81,2.2071 -1.81,3.8164 0,2.6172 2.21,4.8243 4.82,4.8243 1.21,0 2.42,-0.3985 3.22,-1.004 10.65,-7.6367 21.9,-11.6601 34.16,-11.6601 13.86,0 24.71,7.6445 24.71,19.4922 v 0.3984 c 0,12.0625 -12.86,16.4844 -27.12,20.5 -16.68,4.8242 -35.17,9.8438 -35.17,28.1327 v 0.402 c 0,16.473 13.87,28.321 33.76,28.321 11.05,0 23.3,-3.613 33.15,-9.238 1.21,-0.801 2.61,-2.208 2.61,-4.426 0,-2.606 -2.21,-4.824 -4.82,-4.824 -1.2,0 -2.21,0.41 -2.82,0.812 -8.83,5.223 -18.68,8.438 -28.53,8.438 -14.06,0 -23.3,-7.629 -23.3,-17.883 v -0.399 c 0,-11.4568 13.87,-15.6755 28.53,-19.8943 16.48,-4.6172 33.75,-10.6523 33.75,-28.7304 v -0.3985 c 0,-18.293 -15.67,-29.9414 -35.35,-29.9414 -13.87,0 -29.34,5.418 -39.79,13.2617" /><path
         id="path50"
         style="fill:#3c3c44;fill-opacity:1;fill-rule:nonzero;stroke:none"
         d="m 2607.81,37.1719 c 0,-2.8125 -2.01,-5.0196 -4.82,-5.0196 -2.81,0 -5.02,2.0118 -5.02,5.0196 v 14.8633 c -6.84,-12.0508 -18.29,-21.4961 -36.97,-21.4961 -25.93,0 -40.99,17.6757 -40.99,42.1992 v 58.4647 c 0,3.02 2.01,5.031 4.83,5.031 2.81,0 5.01,-2.011 5.01,-5.031 v -56.66 c 0,-21.0938 11.86,-34.961 32.56,-34.961 20.09,0 35.56,15.2657 35.56,36.5625 v 55.0585 c 0,3.02 2.01,5.031 4.82,5.031 2.82,0 5.02,-2.011 5.02,-5.031 V 37.1719" /><path
         id="path52"
         style="fill:#3c3c44;fill-opacity:1;fill-rule:nonzero;stroke:none"
         d="m 2730.86,71.3203 v 11.6602 c -8.65,2.207 -20.1,4.6289 -34.76,4.6289 -21.7,0 -33.76,-9.6485 -33.76,-23.9141 V 63.293 c 0,-14.8711 14.06,-23.5039 29.74,-23.5039 20.89,0 38.78,12.8593 38.78,31.5312 z m -78.96,-8.6328 v 0.4023 c 0,21.2969 18.28,33.3594 44.8,33.3594 14.27,0 24.11,-1.8164 33.96,-4.4258 v 4.4258 c 0,20.6838 -12.66,31.3358 -33.76,31.3358 -11.25,0 -20.7,-2.812 -29.13,-6.836 -0.81,-0.39 -1.61,-0.594 -2.21,-0.594 -2.41,0 -4.63,2.208 -4.63,4.618 0,2.414 1.81,4.015 2.82,4.425 10.45,4.618 20.69,7.637 33.75,7.637 13.86,0 24.92,-3.82 32.35,-11.262 6.84,-6.835 10.45,-16.269 10.45,-28.9332 V 37.1719 c 0,-3.0078 -2.01,-5.0196 -4.82,-5.0196 -2.82,0 -4.82,2.0118 -4.82,5.0196 v 12.8515 c -7.04,-9.8437 -19.69,-19.4843 -39.18,-19.4843 -19.09,0 -39.58,10.8515 -39.58,32.1484" /><path
         id="path54"
         style="fill:#3c3c44;fill-opacity:1;fill-rule:nonzero;stroke:none"
         d="m 2859.15,83.793 v 0.3906 c 0,28.7384 22.9,53.6524 52.24,53.6524 17.68,0 29.33,-7.637 38.57,-16.27 0.81,-0.812 1.41,-2.218 1.41,-3.625 0,-2.812 -2.21,-5.019 -5.02,-5.019 -1.2,0 -2.61,0.402 -3.42,1.203 -8.24,7.832 -17.88,14.461 -31.74,14.461 -23.31,0 -41.39,-19.481 -41.39,-43.9922 v -0.4102 c 0,-24.707 18.68,-44.3945 42.19,-44.3945 13.26,0 23.91,6.4257 32.15,14.6679 0.8,0.8008 1.81,1.6016 3.21,1.6016 2.42,0 4.82,-2.4141 4.82,-4.8242 0,-1.0078 -0.4,-2.2071 -1.2,-3.0196 -10.25,-10.4375 -22.1,-17.6757 -39.58,-17.6757 -29.53,0 -52.24,24.5117 -52.24,53.2539" /><path
         id="path56"
         style="fill:#3c3c44;fill-opacity:1;fill-rule:nonzero;stroke:none"
         d="m 3066.58,71.3203 v 11.6602 c -8.64,2.207 -20.09,4.6289 -34.76,4.6289 -21.7,0 -33.76,-9.6485 -33.76,-23.9141 V 63.293 c 0,-14.8711 14.07,-23.5039 29.74,-23.5039 20.89,0 38.78,12.8593 38.78,31.5312 z m -78.96,-8.6328 v 0.4023 c 0,21.2969 18.28,33.3594 44.8,33.3594 14.27,0 24.11,-1.8164 33.96,-4.4258 v 4.4258 c 0,20.6838 -12.66,31.3358 -33.76,31.3358 -11.25,0 -20.69,-2.812 -29.13,-6.836 -0.81,-0.39 -1.61,-0.594 -2.21,-0.594 -2.41,0 -4.62,2.208 -4.62,4.618 0,2.414 1.81,4.015 2.81,4.425 10.45,4.618 20.69,7.637 33.75,7.637 13.87,0 24.92,-3.82 32.35,-11.262 6.84,-6.835 10.46,-16.269 10.46,-28.9332 V 37.1719 c 0,-3.0078 -2.02,-5.0196 -4.83,-5.0196 -2.81,0 -4.82,2.0118 -4.82,5.0196 v 12.8515 c -7.03,-9.8437 -19.69,-19.4843 -39.18,-19.4843 -19.09,0 -39.58,10.8515 -39.58,32.1484" /><path
         id="path58"
         style="fill:#3c3c44;fill-opacity:1;fill-rule:nonzero;stroke:none"
         d="m 3126.52,131.203 c 0,2.813 2.01,5.031 4.82,5.031 2.81,0 5.03,-2.011 5.03,-5.031 v -24.922 c 8.84,19.903 26.72,30.754 41.18,30.754 3.02,0 5.22,-2.422 5.22,-5.43 0,-2.812 -2,-5.226 -5.22,-5.421 -21.69,-2.012 -41.18,-18.289 -41.18,-51.2387 V 37.1719 c 0,-2.8125 -2.01,-5.0196 -4.83,-5.0196 -2.81,0 -5.02,2.0118 -5.02,5.0196 v 94.0311" /><path
         id="path60"
         style="fill:#3c3c44;fill-opacity:1;fill-rule:nonzero;stroke:none"
         d="m 3222.01,131.203 c 0,2.813 2,5.031 4.82,5.031 2.81,0 5.03,-2.011 5.03,-5.031 v -24.922 c 8.83,19.903 26.72,30.754 41.18,30.754 3.02,0 5.23,-2.422 5.23,-5.43 0,-2.812 -2.01,-5.226 -5.23,-5.421 -21.69,-2.012 -41.18,-18.289 -41.18,-51.2387 V 37.1719 c 0,-2.8125 -2.02,-5.0196 -4.83,-5.0196 -2.81,0 -5.02,2.0118 -5.02,5.0196 v 94.0311" /><path
         id="path62"
         style="fill:#3c3c44;fill-opacity:1;fill-rule:nonzero;stroke:none"
         d="m 3390.44,89.0078 c -1.41,20.6912 -13.26,39.7852 -36.77,39.7852 -20.29,0 -35.96,-17.082 -37.77,-39.7852 z m -34.76,-58.4687 c -26.92,0 -50.23,21.4961 -50.23,53.4375 v 0.4101 c 0,29.7383 20.9,53.4493 48.62,53.4493 28.73,0 47.02,-23.711 47.02,-53.0469 0,-2.4141 -2.41,-4.6211 -4.83,-4.6211 h -80.36 c 1.81,-25.5157 20.09,-40.3789 40.18,-40.3789 14.67,0 24.92,6.0234 33.15,14.0507 0.81,0.8125 1.81,1.418 3.22,1.418 2.61,0 4.82,-2.0117 4.82,-4.6211 0,-1.0039 -0.4,-2.2148 -1.6,-3.4258 -10.05,-10.039 -21.51,-16.6718 -39.99,-16.6718" /><path
         id="path64"
         style="fill:#3c3c44;fill-opacity:1;fill-rule:nonzero;stroke:none"
         d="m 3446.36,131.203 c 0,2.813 2.02,5.031 4.83,5.031 2.81,0 5.02,-2.011 5.02,-5.031 V 37.1719 c 0,-3.0078 -2,-5.0196 -4.82,-5.0196 -2.81,0 -5.03,2.0118 -5.03,5.0196 z m -1.2,39.375 c 0,3.418 2.61,6.035 6.03,6.035 3.41,0 6.22,-2.617 6.22,-6.035 v -3.406 c 0,-3.418 -2.81,-6.035 -6.22,-6.035 -3.42,0 -6.03,2.617 -6.03,6.035 v 3.406" /><path
         id="path66"
         style="fill:#3c3c44;fill-opacity:1;fill-rule:nonzero;stroke:none"
         d="m 3510.1,131.203 c 0,2.813 2,5.031 4.81,5.031 2.82,0 5.03,-2.011 5.03,-5.031 v -24.922 c 8.84,19.903 26.72,30.754 41.19,30.754 3.01,0 5.22,-2.422 5.22,-5.43 0,-2.812 -2,-5.226 -5.22,-5.421 -21.7,-2.012 -41.19,-18.289 -41.19,-51.2387 V 37.1719 c 0,-2.8125 -2.01,-5.0196 -4.83,-5.0196 -2.81,0 -5.01,2.0118 -5.01,5.0196 v 94.0311" /><path
         id="path68"
         style="fill:#3c3c44;fill-opacity:1;fill-rule:nonzero;stroke:none"
         d="m 3671.09,71.3203 v 11.6602 c -8.64,2.207 -20.09,4.6289 -34.76,4.6289 -21.7,0 -33.76,-9.6485 -33.76,-23.9141 V 63.293 c 0,-14.8711 14.07,-23.5039 29.74,-23.5039 20.89,0 38.78,12.8593 38.78,31.5312 z m -78.96,-8.6328 v 0.4023 c 0,21.2969 18.28,33.3594 44.8,33.3594 14.27,0 24.12,-1.8164 33.96,-4.4258 v 4.4258 c 0,20.6838 -12.66,31.3358 -33.75,31.3358 -11.26,0 -20.7,-2.812 -29.14,-6.836 -0.81,-0.39 -1.61,-0.594 -2.21,-0.594 -2.41,0 -4.62,2.208 -4.62,4.618 0,2.414 1.8,4.015 2.81,4.425 10.45,4.618 20.69,7.637 33.76,7.637 13.86,0 24.91,-3.82 32.34,-11.262 6.84,-6.835 10.45,-16.269 10.45,-28.9332 V 37.1719 c 0,-3.0078 -2,-5.0196 -4.82,-5.0196 -2.81,0 -4.82,2.0118 -4.82,5.0196 v 12.8515 c -7.03,-9.8437 -19.69,-19.4843 -39.18,-19.4843 -19.09,0 -39.58,10.8515 -39.58,32.1484" /><path
         id="path70"
         style="fill:#3c3c44;fill-opacity:1;fill-rule:nonzero;stroke:none"
         d="m 3735.45,50.832 c 3.82,0 6.64,-2.8125 6.64,-6.6289 v -5.4218 c 0,-3.8165 -2.82,-6.629 -6.64,-6.629 -3.82,0 -6.63,2.8125 -6.63,6.629 v 5.4218 c 0,3.8164 2.81,6.6289 6.63,6.6289" /><path
         id="path72"
         style="fill:#3c3c44;fill-opacity:1;fill-rule:nonzero;stroke:none"
         d="m 204.531,38.7344 h 465.071 c 29.984,0 54.382,24.4023 54.382,54.3828 V 672.648 c 0,29.981 -24.398,54.387 -54.382,54.387 H 90.0742 c -29.9883,0 -54.3828,-24.406 -54.3828,-54.387 V 213.422 l 246.2426,246.25 -69.25,69.246 c -1.274,1.242 -3.016,2.93 -4.68,5.207 -6.371,8.68 -7.664,19.578 -3.477,29.148 4.192,9.571 13.059,15.997 23.731,17.207 2.59,0.286 4.883,0.286 6.734,0.254 h 1.047 25.461 c 93.359,0.032 186.719,0.039 280.094,0.032 3.578,0 6.976,-0.293 9.972,-0.559 1.219,-0.098 2.434,-0.215 3.645,-0.293 4.312,-0.281 8.367,-2.129 11.422,-5.184 l 4.441,-4.433 c 2.785,-2.785 4.574,-6.406 5.094,-10.305 0.102,-0.769 0.234,-1.543 0.367,-2.312 0.434,-2.539 0.973,-5.715 0.973,-9.328 -0.09,-91.27 -0.231,-182.539 -0.379,-273.809 l -0.059,-36.484 0.004,-0.664 c 0.008,-1.075 0.008,-2.149 -0.043,-3.223 -0.511,-12.02 -6.918,-21.512 -17.57,-26.043 -11.008,-4.68 -22.902,-2.481 -31.809,5.898 -2.578,2.422 -5.062,4.93 -7.543,7.442 l -2.921,2.949 -63.485,63.484 z M 669.602,3.05078 H 161.449 c -7.215,0 -13.719,4.34375 -16.48,11.01562 -2.766,6.668 -1.239,14.3359 3.867,19.4414 L 441.078,325.754 c 6.699,6.691 18.543,6.691 25.242,0 l 75.082,-75.086 0.039,23.934 c 0.141,90.156 0.286,180.312 0.372,270.468 -0.079,0 -0.153,0 -0.223,0 -93.36,0.02 -186.723,0 -280.086,-0.019 h -14.473 l 72.758,-72.762 c 6.969,-6.965 6.969,-18.273 0,-25.234 L 30.4648,157.727 C 25.3633,152.621 17.6875,151.086 11.0156,153.859 4.34766,156.613 0,163.117 0,170.344 v 502.304 c 0,49.661 40.4063,90.071 90.0742,90.071 H 669.602 c 49.664,0 90.074,-40.41 90.074,-90.071 V 93.1172 c 0,-49.6563 -40.41,-90.06642 -90.074,-90.06642" /></g></g></svg>