<svg xmlns="http://www.w3.org/2000/svg" xmlns:xlink="http://www.w3.org/1999/xlink" width="600" zoomAndPan="magnify" viewBox="0 0 450 149.999998" height="200" preserveAspectRatio="xMidYMid meet" version="1.0"><defs><g/><clipPath id="e1f886dd35"><path d="M 64 34.644531 L 67 34.644531 L 67 41 L 64 41 Z M 64 34.644531 " clip-rule="nonzero"/></clipPath><clipPath id="2744d6a066"><path d="M 79 49 L 84.25 49 L 84.25 52 L 79 52 Z M 79 49 " clip-rule="nonzero"/></clipPath><clipPath id="c0515868ca"><path d="M 46.925781 49 L 53 49 L 53 52 L 46.925781 52 Z M 46.925781 49 " clip-rule="nonzero"/></clipPath><clipPath id="33f4023823"><path d="M 59 74 L 72 74 L 72 82.335938 L 59 82.335938 Z M 59 74 " clip-rule="nonzero"/></clipPath><clipPath id="b96e7e698b"><path d="M 21.550781 17.855469 L 99.308594 17.855469 L 99.308594 128.789062 L 21.550781 128.789062 Z M 21.550781 17.855469 " clip-rule="nonzero"/></clipPath></defs><g clip-path="url(#e1f886dd35)"><path fill="#000000" d="M 65.414062 40.128906 C 64.855469 40.128906 64.398438 39.667969 64.398438 39.109375 L 64.398438 35.910156 C 64.398438 35.347656 64.855469 34.886719 65.414062 34.886719 C 65.976562 34.886719 66.433594 35.347656 66.433594 35.910156 L 66.433594 39.109375 C 66.433594 39.667969 65.976562 40.128906 65.414062 40.128906 Z M 65.414062 40.128906 " fill-opacity="1" fill-rule="nonzero"/></g><g clip-path="url(#2744d6a066)"><path fill="#000000" d="M 83.257812 51.90625 L 80.070312 51.90625 C 79.511719 51.90625 79.054688 51.449219 79.054688 50.886719 C 79.054688 50.324219 79.511719 49.867188 80.070312 49.867188 L 83.257812 49.867188 C 83.816406 49.867188 84.277344 50.324219 84.277344 50.886719 C 84.277344 51.449219 83.816406 51.90625 83.257812 51.90625 Z M 83.257812 51.90625 " fill-opacity="1" fill-rule="nonzero"/></g><g clip-path="url(#c0515868ca)"><path fill="#000000" d="M 51.132812 51.90625 L 47.941406 51.90625 C 47.382812 51.90625 46.925781 51.449219 46.925781 50.886719 C 46.925781 50.324219 47.382812 49.867188 47.941406 49.867188 L 51.132812 49.867188 C 51.691406 49.867188 52.148438 50.324219 52.148438 50.886719 C 52.148438 51.449219 51.691406 51.90625 51.132812 51.90625 Z M 51.132812 51.90625 " fill-opacity="1" fill-rule="nonzero"/></g><path fill="#000000" d="M 55.117188 44.507812 C 54.859375 44.507812 54.597656 44.40625 54.402344 44.207031 L 52.148438 41.945312 C 51.753906 41.546875 51.753906 40.898438 52.148438 40.5 C 52.546875 40.101562 53.191406 40.101562 53.585938 40.5 L 55.839844 42.761719 C 56.238281 43.160156 56.238281 43.808594 55.839844 44.207031 C 55.636719 44.40625 55.378906 44.507812 55.117188 44.507812 Z M 55.117188 44.507812 " fill-opacity="1" fill-rule="nonzero"/><path fill="#000000" d="M 75.941406 44.507812 C 75.683594 44.507812 75.421875 44.40625 75.222656 44.207031 C 74.828125 43.808594 74.828125 43.160156 75.222656 42.761719 L 77.476562 40.5 C 77.875 40.101562 78.519531 40.101562 78.914062 40.5 C 79.3125 40.898438 79.3125 41.546875 78.914062 41.945312 L 76.664062 44.207031 C 76.464844 44.40625 76.207031 44.507812 75.941406 44.507812 Z M 75.941406 44.507812 " fill-opacity="1" fill-rule="nonzero"/><path fill="#000000" d="M 72.15625 68.886719 L 59.242188 68.886719 C 58.683594 68.886719 58.226562 68.425781 58.226562 67.863281 L 58.226562 67.308594 C 58.226562 65.097656 57.476562 62.910156 56.0625 60.96875 C 54.558594 58.910156 53.761719 56.464844 53.761719 53.902344 C 53.761719 50.609375 55.132812 47.425781 57.527344 45.171875 C 59.953125 42.882812 63.132812 41.738281 66.460938 41.945312 C 72.632812 42.332031 77.539062 47.496094 77.640625 53.703125 C 77.683594 56.453125 76.824219 59.058594 75.152344 61.226562 C 73.882812 62.878906 73.179688 65.046875 73.179688 67.335938 L 73.179688 67.871094 C 73.175781 68.429688 72.722656 68.886719 72.15625 68.886719 Z M 60.253906 66.84375 L 71.15625 66.84375 C 71.253906 64.289062 72.09375 61.863281 73.546875 59.976562 C 74.933594 58.175781 75.644531 56.015625 75.609375 53.734375 C 75.523438 48.585938 71.457031 44.296875 66.339844 43.980469 C 63.574219 43.808594 60.941406 44.757812 58.925781 46.65625 C 56.914062 48.554688 55.800781 51.132812 55.800781 53.902344 C 55.800781 56.03125 56.460938 58.054688 57.707031 59.765625 C 59.277344 61.925781 60.152344 64.363281 60.253906 66.84375 Z M 60.253906 66.84375 " fill-opacity="1" fill-rule="nonzero"/><path fill="#000000" d="M 72.28125 72.820312 L 59.125 72.820312 C 58.566406 72.820312 58.109375 72.359375 58.109375 71.800781 C 58.109375 71.238281 58.566406 70.777344 59.125 70.777344 L 72.273438 70.777344 C 72.835938 70.777344 73.292969 71.238281 73.292969 71.800781 C 73.292969 72.359375 72.839844 72.820312 72.28125 72.820312 Z M 72.28125 72.820312 " fill-opacity="1" fill-rule="nonzero"/><g clip-path="url(#33f4023823)"><path fill="#000000" d="M 65.699219 82.085938 C 62.480469 82.085938 59.859375 79.460938 59.859375 76.222656 L 59.859375 75.445312 C 59.859375 74.882812 60.316406 74.421875 60.875 74.421875 L 70.519531 74.421875 C 71.078125 74.421875 71.539062 74.882812 71.539062 75.445312 L 71.539062 76.222656 C 71.542969 79.460938 68.925781 82.085938 65.699219 82.085938 Z M 61.902344 76.464844 C 62.023438 78.460938 63.679688 80.046875 65.699219 80.046875 C 67.71875 80.046875 69.375 78.460938 69.5 76.464844 Z M 61.902344 76.464844 " fill-opacity="1" fill-rule="nonzero"/></g><path fill="#000000" d="M 67.65625 68.886719 L 63.746094 68.886719 C 63.28125 68.886719 62.871094 68.570312 62.761719 68.113281 L 59.894531 56.652344 C 59.792969 56.25 59.945312 55.828125 60.273438 55.582031 C 60.605469 55.335938 61.050781 55.316406 61.410156 55.53125 L 63.179688 56.605469 L 64.800781 53.433594 C 64.972656 53.089844 65.324219 52.875 65.707031 52.875 C 66.085938 52.875 66.4375 53.089844 66.609375 53.433594 L 68.230469 56.605469 L 70 55.53125 C 70.351562 55.316406 70.800781 55.335938 71.136719 55.582031 C 71.464844 55.828125 71.617188 56.25 71.515625 56.652344 L 68.648438 68.113281 C 68.53125 68.570312 68.125 68.886719 67.65625 68.886719 Z M 64.539062 66.84375 L 66.871094 66.84375 L 68.9375 58.566406 L 68.355469 58.925781 C 68.109375 59.070312 67.820312 59.113281 67.550781 59.035156 C 67.28125 58.960938 67.050781 58.769531 66.921875 58.519531 L 65.707031 56.136719 L 64.488281 58.519531 C 64.363281 58.769531 64.132812 58.960938 63.859375 59.035156 C 63.589844 59.113281 63.292969 59.070312 63.054688 58.925781 L 62.472656 58.566406 Z M 64.539062 66.84375 " fill-opacity="1" fill-rule="nonzero"/><g clip-path="url(#b96e7e698b)"><path fill="#000000" d="M 25.015625 117.84375 C 26.117188 118.984375 27.398438 119.863281 28.859375 120.480469 C 30.320312 121.097656 31.84375 121.402344 33.429688 121.398438 L 38.625 121.398438 L 38.625 127.371094 C 38.625 127.484375 38.640625 127.597656 38.667969 127.707031 C 38.695312 127.816406 38.738281 127.921875 38.789062 128.019531 C 38.84375 128.121094 38.910156 128.210938 38.988281 128.292969 C 39.066406 128.378906 39.152344 128.449219 39.25 128.511719 C 39.34375 128.570312 39.445312 128.621094 39.554688 128.65625 C 39.660156 128.691406 39.773438 128.710938 39.886719 128.71875 C 40 128.726562 40.109375 128.722656 40.222656 128.699219 C 40.335938 128.679688 40.441406 128.644531 40.542969 128.597656 L 47.273438 125.476562 L 54 128.597656 C 54.105469 128.644531 54.210938 128.679688 54.324219 128.699219 C 54.433594 128.722656 54.546875 128.726562 54.660156 128.71875 C 54.773438 128.710938 54.882812 128.691406 54.992188 128.65625 C 55.097656 128.621094 55.199219 128.570312 55.296875 128.511719 C 55.390625 128.449219 55.480469 128.378906 55.554688 128.292969 C 55.632812 128.210938 55.699219 128.121094 55.753906 128.019531 C 55.808594 127.921875 55.851562 127.816406 55.878906 127.707031 C 55.90625 127.597656 55.921875 127.484375 55.921875 127.371094 L 55.921875 111.003906 L 90.042969 111.003906 C 90.097656 111.957031 90.273438 112.886719 90.570312 113.792969 L 60.019531 113.792969 C 59.839844 113.792969 59.667969 113.828125 59.503906 113.898438 C 59.335938 113.964844 59.191406 114.0625 59.0625 114.191406 C 58.9375 114.316406 58.839844 114.464844 58.769531 114.628906 C 58.703125 114.792969 58.667969 114.96875 58.667969 115.144531 C 58.667969 115.324219 58.703125 115.5 58.769531 115.664062 C 58.839844 115.828125 58.9375 115.976562 59.0625 116.101562 C 59.191406 116.230469 59.335938 116.328125 59.503906 116.394531 C 59.667969 116.464844 59.839844 116.5 60.019531 116.5 L 95.332031 116.5 C 95.496094 116.5 95.652344 116.53125 95.804688 116.59375 C 95.953125 116.65625 96.085938 116.742188 96.203125 116.859375 C 96.316406 116.976562 96.40625 117.109375 96.46875 117.257812 C 96.53125 117.410156 96.5625 117.566406 96.5625 117.730469 L 96.5625 118.695312 L 60.019531 118.695312 C 59.839844 118.695312 59.667969 118.726562 59.503906 118.796875 C 59.335938 118.863281 59.191406 118.960938 59.0625 119.089844 C 58.9375 119.214844 58.839844 119.363281 58.769531 119.527344 C 58.703125 119.695312 58.667969 119.867188 58.667969 120.046875 C 58.667969 120.226562 58.703125 120.398438 58.769531 120.5625 C 58.839844 120.726562 58.9375 120.875 59.0625 121 C 59.191406 121.128906 59.335938 121.226562 59.503906 121.292969 C 59.667969 121.363281 59.839844 121.398438 60.019531 121.398438 L 97.914062 121.398438 C 98.09375 121.398438 98.265625 121.363281 98.433594 121.292969 C 98.597656 121.226562 98.742188 121.128906 98.871094 121 C 98.996094 120.875 99.09375 120.726562 99.164062 120.5625 C 99.230469 120.398438 99.265625 120.226562 99.265625 120.046875 L 99.265625 117.730469 C 99.265625 117.207031 99.164062 116.707031 98.964844 116.222656 C 98.765625 115.742188 98.480469 115.316406 98.113281 114.949219 C 97.742188 114.578125 97.320312 114.296875 96.835938 114.09375 C 96.355469 113.894531 95.855469 113.792969 95.332031 113.792969 L 93.476562 113.792969 C 92.070312 110.753906 93 107.488281 93.546875 106.066406 L 95.332031 106.066406 C 95.851562 106.066406 96.355469 105.96875 96.835938 105.765625 C 97.316406 105.566406 97.742188 105.28125 98.113281 104.914062 C 98.480469 104.546875 98.765625 104.121094 98.964844 103.636719 C 99.164062 103.15625 99.265625 102.652344 99.265625 102.132812 L 99.265625 19.207031 C 99.265625 19.027344 99.230469 18.855469 99.164062 18.691406 C 99.09375 18.523438 98.996094 18.378906 98.871094 18.253906 C 98.742188 18.125 98.597656 18.027344 98.429688 17.960938 C 98.265625 17.890625 98.09375 17.855469 97.914062 17.855469 L 33.644531 17.855469 C 33.621094 17.855469 33.597656 17.863281 33.578125 17.863281 C 33.554688 17.863281 33.535156 17.859375 33.511719 17.863281 C 32.203125 17.988281 30.945312 18.308594 29.738281 18.832031 C 28.53125 19.355469 27.433594 20.050781 26.445312 20.917969 C 25.691406 21.582031 25.019531 22.316406 24.421875 23.125 C 23.828125 23.933594 23.324219 24.796875 22.914062 25.710938 C 22.503906 26.628906 22.195312 27.578125 21.992188 28.558594 C 21.785156 29.542969 21.6875 30.535156 21.695312 31.539062 L 21.695312 109.363281 C 21.652344 110.945312 21.917969 112.46875 22.492188 113.941406 C 23.070312 115.414062 23.910156 116.714844 25.015625 117.84375 Z M 53.21875 125.253906 L 47.839844 122.761719 C 47.460938 122.585938 47.082031 122.585938 46.703125 122.761719 L 41.328125 125.253906 L 41.328125 111.003906 L 53.21875 111.003906 Z M 90.171875 108.300781 L 34.871094 108.300781 C 34.691406 108.300781 34.519531 108.335938 34.355469 108.402344 C 34.1875 108.472656 34.042969 108.570312 33.914062 108.699219 C 33.789062 108.824219 33.691406 108.96875 33.625 109.136719 C 33.554688 109.300781 33.519531 109.472656 33.519531 109.652344 C 33.519531 109.832031 33.554688 110.003906 33.625 110.171875 C 33.691406 110.335938 33.789062 110.484375 33.914062 110.609375 C 34.042969 110.734375 34.1875 110.832031 34.355469 110.902344 C 34.519531 110.972656 34.691406 111.003906 34.871094 111.003906 L 38.625 111.003906 L 38.625 113.792969 L 33.429688 113.792969 C 33.167969 113.792969 32.90625 113.769531 32.652344 113.714844 C 32.394531 113.664062 32.148438 113.585938 31.90625 113.480469 C 31.667969 113.378906 31.4375 113.253906 31.222656 113.101562 C 31.011719 112.953125 30.8125 112.785156 30.632812 112.59375 C 30.453125 112.40625 30.292969 112.199219 30.152344 111.976562 C 30.015625 111.757812 29.902344 111.523438 29.808594 111.277344 C 29.71875 111.03125 29.652344 110.78125 29.613281 110.523438 C 29.574219 110.265625 29.558594 110.003906 29.570312 109.742188 C 29.609375 109.238281 29.742188 108.761719 29.960938 108.308594 C 30.183594 107.855469 30.476562 107.457031 30.847656 107.117188 C 31.222656 106.773438 31.640625 106.511719 32.113281 106.332031 C 32.582031 106.152344 33.070312 106.0625 33.574219 106.066406 L 90.679688 106.066406 C 90.453125 106.800781 90.285156 107.542969 90.171875 108.300781 Z M 96.5625 102.132812 C 96.5625 102.296875 96.53125 102.453125 96.46875 102.601562 C 96.40625 102.753906 96.316406 102.886719 96.203125 103.003906 C 96.085938 103.117188 95.953125 103.207031 95.804688 103.269531 C 95.652344 103.332031 95.496094 103.363281 95.332031 103.363281 L 33.574219 103.363281 C 33.152344 103.359375 32.734375 103.394531 32.316406 103.46875 C 31.902344 103.542969 31.496094 103.65625 31.101562 103.808594 C 30.707031 103.960938 30.328125 104.152344 29.972656 104.375 C 29.613281 104.601562 29.277344 104.855469 28.96875 105.144531 C 28.660156 105.433594 28.382812 105.75 28.132812 106.089844 C 27.882812 106.433594 27.667969 106.796875 27.488281 107.179688 C 27.308594 107.5625 27.167969 107.957031 27.0625 108.367188 C 26.960938 108.777344 26.894531 109.195312 26.871094 109.617188 C 26.851562 110.0625 26.875 110.503906 26.941406 110.941406 C 27.011719 111.382812 27.121094 111.808594 27.277344 112.226562 C 27.433594 112.640625 27.628906 113.039062 27.863281 113.414062 C 28.097656 113.792969 28.371094 114.140625 28.675781 114.464844 C 28.984375 114.785156 29.320312 115.074219 29.683594 115.328125 C 30.050781 115.582031 30.433594 115.792969 30.84375 115.96875 C 31.253906 116.144531 31.671875 116.277344 32.109375 116.367188 C 32.542969 116.457031 32.984375 116.5 33.429688 116.5 L 38.625 116.5 L 38.625 118.695312 L 33.429688 118.695312 C 32.824219 118.695312 32.226562 118.636719 31.632812 118.515625 C 31.042969 118.394531 30.46875 118.21875 29.910156 117.980469 C 29.355469 117.746094 28.828125 117.460938 28.328125 117.117188 C 27.832031 116.777344 27.371094 116.390625 26.949219 115.957031 C 26.527344 115.523438 26.15625 115.050781 25.828125 114.542969 C 25.5 114.035156 25.226562 113.5 25.007812 112.9375 C 24.789062 112.375 24.628906 111.792969 24.527344 111.199219 C 24.421875 110.605469 24.378906 110.003906 24.394531 109.398438 C 24.527344 104.554688 28.679688 100.613281 33.644531 100.613281 L 96.5625 100.613281 Z M 28.214844 22.964844 C 29.402344 21.921875 30.761719 21.203125 32.292969 20.8125 L 32.292969 92.777344 C 32.292969 92.957031 32.328125 93.128906 32.394531 93.296875 C 32.464844 93.460938 32.5625 93.609375 32.6875 93.734375 C 32.816406 93.863281 32.960938 93.960938 33.128906 94.027344 C 33.292969 94.097656 33.464844 94.132812 33.644531 94.132812 C 33.824219 94.132812 33.996094 94.097656 34.160156 94.027344 C 34.328125 93.960938 34.472656 93.863281 34.601562 93.734375 C 34.726562 93.609375 34.824219 93.460938 34.894531 93.296875 C 34.960938 93.128906 34.996094 92.957031 34.996094 92.777344 L 34.996094 20.558594 L 96.5625 20.558594 L 96.5625 97.910156 L 33.644531 97.910156 C 31.855469 97.914062 30.15625 98.292969 28.539062 99.054688 C 26.921875 99.816406 25.539062 100.882812 24.398438 102.257812 L 24.398438 31.539062 C 24.378906 29.902344 24.707031 28.332031 25.371094 26.835938 C 26.039062 25.339844 26.984375 24.046875 28.214844 22.964844 Z M 28.214844 22.964844 " fill-opacity="1" fill-rule="nonzero"/></g><g fill="#000000" fill-opacity="1"><g transform="translate(107.23901, 61.390143)"><g><path d="M 19.40625 0 L 4.1875 0 C 3.582031 0 3.140625 -0.132812 2.859375 -0.40625 C 2.585938 -0.675781 2.453125 -1.117188 2.453125 -1.734375 L 2.453125 -7.375 C 2.453125 -7.976562 2.585938 -8.414062 2.859375 -8.6875 C 3.140625 -8.957031 3.582031 -9.09375 4.1875 -9.09375 L 17.140625 -9.09375 C 17.554688 -9.09375 17.867188 -9.226562 18.078125 -9.5 C 18.285156 -9.78125 18.390625 -10.113281 18.390625 -10.5 C 18.390625 -11.039062 18.285156 -11.441406 18.078125 -11.703125 C 17.867188 -11.960938 17.554688 -12.109375 17.140625 -12.140625 L 9.921875 -13.140625 C 7.671875 -13.460938 5.863281 -14.203125 4.5 -15.359375 C 3.132812 -16.515625 2.453125 -18.441406 2.453125 -21.140625 L 2.453125 -26.203125 C 2.453125 -28.929688 3.332031 -31.023438 5.09375 -32.484375 C 6.863281 -33.941406 9.304688 -34.671875 12.421875 -34.671875 L 25.90625 -34.671875 C 26.519531 -34.671875 26.960938 -34.535156 27.234375 -34.265625 C 27.503906 -33.992188 27.640625 -33.550781 27.640625 -32.9375 L 27.640625 -27.203125 C 27.640625 -26.597656 27.503906 -26.15625 27.234375 -25.875 C 26.960938 -25.601562 26.519531 -25.46875 25.90625 -25.46875 L 14.6875 -25.46875 C 14.269531 -25.46875 13.945312 -25.332031 13.71875 -25.0625 C 13.5 -24.789062 13.390625 -24.445312 13.390625 -24.03125 C 13.390625 -23.613281 13.5 -23.257812 13.71875 -22.96875 C 13.945312 -22.675781 14.269531 -22.515625 14.6875 -22.484375 L 21.859375 -21.53125 C 24.109375 -21.207031 25.921875 -20.46875 27.296875 -19.3125 C 28.679688 -18.15625 29.375 -16.226562 29.375 -13.53125 L 29.375 -8.46875 C 29.375 -5.738281 28.484375 -3.644531 26.703125 -2.1875 C 24.921875 -0.726562 22.488281 0 19.40625 0 Z M 19.40625 0 "/></g></g></g><g fill="#000000" fill-opacity="1"><g transform="translate(138.541791, 61.390143)"><g><path d="M 19.703125 0 L 11.890625 0 C 11.285156 0 10.84375 -0.132812 10.5625 -0.40625 C 10.289062 -0.675781 10.15625 -1.117188 10.15625 -1.734375 L 10.15625 -25.375 L 3.078125 -25.375 C 2.472656 -25.375 2.03125 -25.507812 1.75 -25.78125 C 1.476562 -26.0625 1.34375 -26.503906 1.34375 -27.109375 L 1.34375 -32.9375 C 1.34375 -33.550781 1.476562 -33.992188 1.75 -34.265625 C 2.03125 -34.535156 2.472656 -34.671875 3.078125 -34.671875 L 28.515625 -34.671875 C 29.117188 -34.671875 29.554688 -34.535156 29.828125 -34.265625 C 30.097656 -33.992188 30.234375 -33.550781 30.234375 -32.9375 L 30.234375 -27.109375 C 30.234375 -26.503906 30.097656 -26.0625 29.828125 -25.78125 C 29.554688 -25.507812 29.117188 -25.375 28.515625 -25.375 L 21.421875 -25.375 L 21.421875 -1.734375 C 21.421875 -1.117188 21.285156 -0.675781 21.015625 -0.40625 C 20.742188 -0.132812 20.304688 0 19.703125 0 Z M 19.703125 0 "/></g></g></g><g fill="#000000" fill-opacity="1"><g transform="translate(170.13354, 61.390143)"><g><path d="M 15.890625 -24.5625 L 13.625 -17.234375 L 21.1875 -17.234375 L 18.921875 -24.5625 C 18.796875 -24.851562 18.660156 -25.0625 18.515625 -25.1875 C 18.367188 -25.3125 18.203125 -25.375 18.015625 -25.375 L 16.8125 -25.375 C 16.613281 -25.375 16.441406 -25.3125 16.296875 -25.1875 C 16.148438 -25.0625 16.015625 -24.851562 15.890625 -24.5625 Z M 13.140625 -1.734375 C 13.140625 -1.117188 13.003906 -0.675781 12.734375 -0.40625 C 12.460938 -0.132812 12.019531 0 11.40625 0 L 4.328125 0 C 3.722656 0 3.28125 -0.132812 3 -0.40625 C 2.726562 -0.675781 2.59375 -1.117188 2.59375 -1.734375 L 2.59375 -14.453125 C 2.59375 -15.410156 2.742188 -16.515625 3.046875 -17.765625 C 3.359375 -19.015625 3.835938 -20.476562 4.484375 -22.15625 L 8.671875 -33.078125 C 8.859375 -33.628906 9.148438 -34.03125 9.546875 -34.28125 C 9.953125 -34.539062 10.476562 -34.671875 11.125 -34.671875 L 24.078125 -34.671875 C 24.691406 -34.671875 25.195312 -34.539062 25.59375 -34.28125 C 26 -34.03125 26.296875 -33.628906 26.484375 -33.078125 L 30.671875 -22.15625 C 31.316406 -20.476562 31.789062 -19.015625 32.09375 -17.765625 C 32.394531 -16.515625 32.546875 -15.410156 32.546875 -14.453125 L 32.546875 -1.734375 C 32.546875 -1.117188 32.410156 -0.675781 32.140625 -0.40625 C 31.867188 -0.132812 31.425781 0 30.8125 0 L 23.546875 0 C 22.898438 0 22.425781 -0.132812 22.125 -0.40625 C 21.820312 -0.675781 21.671875 -1.117188 21.671875 -1.734375 L 21.671875 -8.46875 L 13.140625 -8.46875 Z M 13.140625 -1.734375 "/></g></g></g><g fill="#000000" fill-opacity="1"><g transform="translate(205.288983, 61.390143)"><g><path d="M 14.203125 -26 L 14.203125 -19.84375 L 17.8125 -19.84375 C 18.644531 -19.84375 19.207031 -20.054688 19.5 -20.484375 C 19.789062 -20.921875 19.9375 -21.460938 19.9375 -22.109375 L 19.9375 -23.734375 C 19.9375 -24.378906 19.789062 -24.914062 19.5 -25.34375 C 19.207031 -25.78125 18.644531 -26 17.8125 -26 Z M 12.46875 0 L 5.0625 0 C 4.445312 0 4.003906 -0.132812 3.734375 -0.40625 C 3.460938 -0.675781 3.328125 -1.117188 3.328125 -1.734375 L 3.328125 -32.9375 C 3.328125 -33.550781 3.460938 -33.992188 3.734375 -34.265625 C 4.003906 -34.535156 4.445312 -34.671875 5.0625 -34.671875 L 21.09375 -34.671875 C 24.6875 -34.671875 27.164062 -33.921875 28.53125 -32.421875 C 29.894531 -30.929688 30.578125 -29 30.578125 -26.625 L 30.578125 -24.421875 C 30.578125 -23.066406 30.375 -21.914062 29.96875 -20.96875 C 29.570312 -20.019531 28.875 -19.335938 27.875 -18.921875 C 29.613281 -18.734375 31.019531 -18.03125 32.09375 -16.8125 C 33.164062 -15.59375 33.703125 -13.96875 33.703125 -11.9375 L 33.703125 -1.734375 C 33.703125 -1.117188 33.566406 -0.675781 33.296875 -0.40625 C 33.023438 -0.132812 32.582031 0 31.96875 0 L 24.515625 0 C 23.898438 0 23.457031 -0.132812 23.1875 -0.40625 C 22.914062 -0.675781 22.78125 -1.117188 22.78125 -1.734375 L 22.78125 -9.09375 C 22.78125 -9.800781 22.640625 -10.320312 22.359375 -10.65625 C 22.085938 -11 21.617188 -11.171875 20.953125 -11.171875 L 14.203125 -11.171875 L 14.203125 -1.734375 C 14.203125 -1.117188 14.066406 -0.675781 13.796875 -0.40625 C 13.523438 -0.132812 13.082031 0 12.46875 0 Z M 12.46875 0 "/></g></g></g><g fill="#000000" fill-opacity="1"><g transform="translate(241.070473, 61.390143)"><g><path d="M 19.703125 0 L 11.890625 0 C 11.285156 0 10.84375 -0.132812 10.5625 -0.40625 C 10.289062 -0.675781 10.15625 -1.117188 10.15625 -1.734375 L 10.15625 -25.375 L 3.078125 -25.375 C 2.472656 -25.375 2.03125 -25.507812 1.75 -25.78125 C 1.476562 -26.0625 1.34375 -26.503906 1.34375 -27.109375 L 1.34375 -32.9375 C 1.34375 -33.550781 1.476562 -33.992188 1.75 -34.265625 C 2.03125 -34.535156 2.472656 -34.671875 3.078125 -34.671875 L 28.515625 -34.671875 C 29.117188 -34.671875 29.554688 -34.535156 29.828125 -34.265625 C 30.097656 -33.992188 30.234375 -33.550781 30.234375 -32.9375 L 30.234375 -27.109375 C 30.234375 -26.503906 30.097656 -26.0625 29.828125 -25.78125 C 29.554688 -25.507812 29.117188 -25.375 28.515625 -25.375 L 21.421875 -25.375 L 21.421875 -1.734375 C 21.421875 -1.117188 21.285156 -0.675781 21.015625 -0.40625 C 20.742188 -0.132812 20.304688 0 19.703125 0 Z M 19.703125 0 "/></g></g></g><g fill="#000000" fill-opacity="1"><g transform="translate(272.662222, 61.390143)"><g><path d="M 32.84375 -9.09375 C 32.84375 -7.625 32.625 -6.285156 32.1875 -5.078125 C 31.757812 -3.878906 30.988281 -2.851562 29.875 -2 C 28.769531 -1.144531 27.253906 -0.476562 25.328125 0 C 23.398438 0.476562 20.945312 0.71875 17.96875 0.71875 C 14.976562 0.71875 12.519531 0.476562 10.59375 0 C 8.664062 -0.476562 7.144531 -1.144531 6.03125 -2 C 4.925781 -2.851562 4.15625 -3.878906 3.71875 -5.078125 C 3.289062 -6.285156 3.078125 -7.625 3.078125 -9.09375 L 3.078125 -32.9375 C 3.078125 -33.550781 3.210938 -33.992188 3.484375 -34.265625 C 3.765625 -34.535156 4.207031 -34.671875 4.8125 -34.671875 L 12.375 -34.671875 C 12.988281 -34.671875 13.429688 -34.535156 13.703125 -34.265625 C 13.972656 -33.992188 14.109375 -33.550781 14.109375 -32.9375 L 14.109375 -10.984375 C 14.109375 -10.335938 14.347656 -9.796875 14.828125 -9.359375 C 15.304688 -8.929688 16.382812 -8.71875 18.0625 -8.71875 C 19.757812 -8.71875 20.847656 -8.929688 21.328125 -9.359375 C 21.816406 -9.796875 22.0625 -10.335938 22.0625 -10.984375 L 22.0625 -32.9375 C 22.0625 -33.550781 22.195312 -33.992188 22.46875 -34.265625 C 22.738281 -34.535156 23.179688 -34.671875 23.796875 -34.671875 L 31.109375 -34.671875 C 31.722656 -34.671875 32.164062 -34.535156 32.4375 -34.265625 C 32.707031 -33.992188 32.84375 -33.550781 32.84375 -32.9375 Z M 32.84375 -9.09375 "/></g></g></g><g fill="#000000" fill-opacity="1"><g transform="translate(308.588185, 61.390143)"><g><path d="M 12.515625 0 L 5.0625 0 C 4.445312 0 4.003906 -0.132812 3.734375 -0.40625 C 3.460938 -0.675781 3.328125 -1.117188 3.328125 -1.734375 L 3.328125 -32.9375 C 3.328125 -33.550781 3.460938 -33.992188 3.734375 -34.265625 C 4.003906 -34.535156 4.445312 -34.671875 5.0625 -34.671875 L 19.796875 -34.671875 C 24.160156 -34.671875 27.144531 -33.800781 28.75 -32.0625 C 30.351562 -30.332031 31.15625 -28.070312 31.15625 -25.28125 L 31.15625 -19.125 C 31.15625 -16.320312 30.351562 -14.054688 28.75 -12.328125 C 27.144531 -10.597656 24.160156 -9.734375 19.796875 -9.734375 L 14.25 -9.734375 L 14.25 -1.734375 C 14.25 -1.117188 14.113281 -0.675781 13.84375 -0.40625 C 13.570312 -0.132812 13.128906 0 12.515625 0 Z M 14.15625 -25.671875 L 14.15625 -18.390625 L 18.484375 -18.390625 C 19.421875 -18.390625 20.03125 -18.628906 20.3125 -19.109375 C 20.601562 -19.597656 20.75 -20.144531 20.75 -20.75 L 20.75 -23.3125 C 20.75 -23.914062 20.601562 -24.457031 20.3125 -24.9375 C 20.03125 -25.425781 19.421875 -25.671875 18.484375 -25.671875 Z M 14.15625 -25.671875 "/></g></g></g><g fill="#000000" fill-opacity="1"><g transform="translate(107.23901, 110.717241)"><g><path d="M 27.40625 0 L 5.0625 0 C 4.445312 0 4.003906 -0.132812 3.734375 -0.40625 C 3.460938 -0.675781 3.328125 -1.117188 3.328125 -1.734375 L 3.328125 -32.9375 C 3.328125 -33.550781 3.460938 -33.992188 3.734375 -34.265625 C 4.003906 -34.535156 4.445312 -34.671875 5.0625 -34.671875 L 27.40625 -34.671875 C 28.007812 -34.671875 28.445312 -34.535156 28.71875 -34.265625 C 29 -33.992188 29.140625 -33.550781 29.140625 -32.9375 L 29.140625 -27.296875 C 29.140625 -26.691406 29 -26.253906 28.71875 -25.984375 C 28.445312 -25.710938 28.007812 -25.578125 27.40625 -25.578125 L 14.109375 -25.578125 L 14.109375 -21.859375 L 23.5 -21.859375 C 24.113281 -21.859375 24.554688 -21.722656 24.828125 -21.453125 C 25.097656 -21.179688 25.234375 -20.738281 25.234375 -20.125 L 25.234375 -14.984375 C 25.234375 -14.367188 25.097656 -13.925781 24.828125 -13.65625 C 24.554688 -13.382812 24.113281 -13.25 23.5 -13.25 L 14.109375 -13.25 L 14.109375 -9.09375 L 27.40625 -9.09375 C 28.007812 -9.09375 28.445312 -8.957031 28.71875 -8.6875 C 29 -8.414062 29.140625 -7.976562 29.140625 -7.375 L 29.140625 -1.734375 C 29.140625 -1.117188 29 -0.675781 28.71875 -0.40625 C 28.445312 -0.132812 28.007812 0 27.40625 0 Z M 27.40625 0 "/></g></g></g><g fill="#000000" fill-opacity="1"><g transform="translate(138.734437, 110.717241)"><g><path d="M 3.65625 -12.375 C 3.050781 -12.375 2.609375 -12.507812 2.328125 -12.78125 C 2.054688 -13.050781 1.921875 -13.492188 1.921875 -14.109375 L 1.921875 -20.5625 C 1.921875 -21.175781 2.054688 -21.617188 2.328125 -21.890625 C 2.609375 -22.160156 3.050781 -22.296875 3.65625 -22.296875 L 16.5625 -22.296875 C 17.175781 -22.296875 17.617188 -22.160156 17.890625 -21.890625 C 18.160156 -21.617188 18.296875 -21.175781 18.296875 -20.5625 L 18.296875 -14.109375 C 18.296875 -13.492188 18.160156 -13.050781 17.890625 -12.78125 C 17.617188 -12.507812 17.175781 -12.375 16.5625 -12.375 Z M 3.65625 -12.375 "/></g></g></g><g fill="#000000" fill-opacity="1"><g transform="translate(158.960848, 110.717241)"><g><path d="M 29.5625 0 L 5.0625 0 C 4.445312 0 4.003906 -0.132812 3.734375 -0.40625 C 3.460938 -0.675781 3.328125 -1.117188 3.328125 -1.734375 L 3.328125 -32.9375 C 3.328125 -33.550781 3.460938 -33.992188 3.734375 -34.265625 C 4.003906 -34.535156 4.445312 -34.671875 5.0625 -34.671875 L 12.515625 -34.671875 C 13.128906 -34.671875 13.570312 -34.535156 13.84375 -34.265625 C 14.113281 -33.992188 14.25 -33.550781 14.25 -32.9375 L 14.25 -9.09375 L 20.859375 -9.09375 L 20.859375 -16.90625 C 20.859375 -17.507812 20.992188 -17.945312 21.265625 -18.21875 C 21.535156 -18.5 21.972656 -18.640625 22.578125 -18.640625 L 29.5625 -18.640625 C 30.175781 -18.640625 30.617188 -18.5 30.890625 -18.21875 C 31.160156 -17.945312 31.296875 -17.507812 31.296875 -16.90625 L 31.296875 -1.734375 C 31.296875 -1.117188 31.160156 -0.675781 30.890625 -0.40625 C 30.617188 -0.132812 30.175781 0 29.5625 0 Z M 29.5625 0 "/></g></g></g><g fill="#000000" fill-opacity="1"><g transform="translate(192.430755, 110.717241)"><g><path d="M 27.40625 0 L 5.0625 0 C 4.445312 0 4.003906 -0.132812 3.734375 -0.40625 C 3.460938 -0.675781 3.328125 -1.117188 3.328125 -1.734375 L 3.328125 -32.9375 C 3.328125 -33.550781 3.460938 -33.992188 3.734375 -34.265625 C 4.003906 -34.535156 4.445312 -34.671875 5.0625 -34.671875 L 27.40625 -34.671875 C 28.007812 -34.671875 28.445312 -34.535156 28.71875 -34.265625 C 29 -33.992188 29.140625 -33.550781 29.140625 -32.9375 L 29.140625 -27.296875 C 29.140625 -26.691406 29 -26.253906 28.71875 -25.984375 C 28.445312 -25.710938 28.007812 -25.578125 27.40625 -25.578125 L 14.109375 -25.578125 L 14.109375 -21.859375 L 23.5 -21.859375 C 24.113281 -21.859375 24.554688 -21.722656 24.828125 -21.453125 C 25.097656 -21.179688 25.234375 -20.738281 25.234375 -20.125 L 25.234375 -14.984375 C 25.234375 -14.367188 25.097656 -13.925781 24.828125 -13.65625 C 24.554688 -13.382812 24.113281 -13.25 23.5 -13.25 L 14.109375 -13.25 L 14.109375 -9.09375 L 27.40625 -9.09375 C 28.007812 -9.09375 28.445312 -8.957031 28.71875 -8.6875 C 29 -8.414062 29.140625 -7.976562 29.140625 -7.375 L 29.140625 -1.734375 C 29.140625 -1.117188 29 -0.675781 28.71875 -0.40625 C 28.445312 -0.132812 28.007812 0 27.40625 0 Z M 27.40625 0 "/></g></g></g><g fill="#000000" fill-opacity="1"><g transform="translate(223.926182, 110.717241)"><g><path d="M 15.890625 -24.5625 L 13.625 -17.234375 L 21.1875 -17.234375 L 18.921875 -24.5625 C 18.796875 -24.851562 18.660156 -25.0625 18.515625 -25.1875 C 18.367188 -25.3125 18.203125 -25.375 18.015625 -25.375 L 16.8125 -25.375 C 16.613281 -25.375 16.441406 -25.3125 16.296875 -25.1875 C 16.148438 -25.0625 16.015625 -24.851562 15.890625 -24.5625 Z M 13.140625 -1.734375 C 13.140625 -1.117188 13.003906 -0.675781 12.734375 -0.40625 C 12.460938 -0.132812 12.019531 0 11.40625 0 L 4.328125 0 C 3.722656 0 3.28125 -0.132812 3 -0.40625 C 2.726562 -0.675781 2.59375 -1.117188 2.59375 -1.734375 L 2.59375 -14.453125 C 2.59375 -15.410156 2.742188 -16.515625 3.046875 -17.765625 C 3.359375 -19.015625 3.835938 -20.476562 4.484375 -22.15625 L 8.671875 -33.078125 C 8.859375 -33.628906 9.148438 -34.03125 9.546875 -34.28125 C 9.953125 -34.539062 10.476562 -34.671875 11.125 -34.671875 L 24.078125 -34.671875 C 24.691406 -34.671875 25.195312 -34.539062 25.59375 -34.28125 C 26 -34.03125 26.296875 -33.628906 26.484375 -33.078125 L 30.671875 -22.15625 C 31.316406 -20.476562 31.789062 -19.015625 32.09375 -17.765625 C 32.394531 -16.515625 32.546875 -15.410156 32.546875 -14.453125 L 32.546875 -1.734375 C 32.546875 -1.117188 32.410156 -0.675781 32.140625 -0.40625 C 31.867188 -0.132812 31.425781 0 30.8125 0 L 23.546875 0 C 22.898438 0 22.425781 -0.132812 22.125 -0.40625 C 21.820312 -0.675781 21.671875 -1.117188 21.671875 -1.734375 L 21.671875 -8.46875 L 13.140625 -8.46875 Z M 13.140625 -1.734375 "/></g></g></g><g fill="#000000" fill-opacity="1"><g transform="translate(259.081625, 110.717241)"><g><path d="M 14.203125 -26 L 14.203125 -19.84375 L 17.8125 -19.84375 C 18.644531 -19.84375 19.207031 -20.054688 19.5 -20.484375 C 19.789062 -20.921875 19.9375 -21.460938 19.9375 -22.109375 L 19.9375 -23.734375 C 19.9375 -24.378906 19.789062 -24.914062 19.5 -25.34375 C 19.207031 -25.78125 18.644531 -26 17.8125 -26 Z M 12.46875 0 L 5.0625 0 C 4.445312 0 4.003906 -0.132812 3.734375 -0.40625 C 3.460938 -0.675781 3.328125 -1.117188 3.328125 -1.734375 L 3.328125 -32.9375 C 3.328125 -33.550781 3.460938 -33.992188 3.734375 -34.265625 C 4.003906 -34.535156 4.445312 -34.671875 5.0625 -34.671875 L 21.09375 -34.671875 C 24.6875 -34.671875 27.164062 -33.921875 28.53125 -32.421875 C 29.894531 -30.929688 30.578125 -29 30.578125 -26.625 L 30.578125 -24.421875 C 30.578125 -23.066406 30.375 -21.914062 29.96875 -20.96875 C 29.570312 -20.019531 28.875 -19.335938 27.875 -18.921875 C 29.613281 -18.734375 31.019531 -18.03125 32.09375 -16.8125 C 33.164062 -15.59375 33.703125 -13.96875 33.703125 -11.9375 L 33.703125 -1.734375 C 33.703125 -1.117188 33.566406 -0.675781 33.296875 -0.40625 C 33.023438 -0.132812 32.582031 0 31.96875 0 L 24.515625 0 C 23.898438 0 23.457031 -0.132812 23.1875 -0.40625 C 22.914062 -0.675781 22.78125 -1.117188 22.78125 -1.734375 L 22.78125 -9.09375 C 22.78125 -9.800781 22.640625 -10.320312 22.359375 -10.65625 C 22.085938 -11 21.617188 -11.171875 20.953125 -11.171875 L 14.203125 -11.171875 L 14.203125 -1.734375 C 14.203125 -1.117188 14.066406 -0.675781 13.796875 -0.40625 C 13.523438 -0.132812 13.082031 0 12.46875 0 Z M 12.46875 0 "/></g></g></g><g fill="#000000" fill-opacity="1"><g transform="translate(294.863115, 110.717241)"><g><path d="M 12.28125 0 L 5.0625 0 C 4.445312 0 4.003906 -0.132812 3.734375 -0.40625 C 3.460938 -0.675781 3.328125 -1.117188 3.328125 -1.734375 L 3.328125 -32.9375 C 3.328125 -33.550781 3.460938 -33.992188 3.734375 -34.265625 C 4.003906 -34.535156 4.445312 -34.671875 5.0625 -34.671875 L 10.0625 -34.671875 C 10.675781 -34.671875 11.195312 -34.570312 11.625 -34.375 C 12.0625 -34.1875 12.488281 -33.851562 12.90625 -33.375 L 22.25 -22.6875 L 22.25 -32.9375 C 22.25 -33.550781 22.382812 -33.992188 22.65625 -34.265625 C 22.925781 -34.535156 23.367188 -34.671875 23.984375 -34.671875 L 31.203125 -34.671875 C 31.816406 -34.671875 32.257812 -34.535156 32.53125 -34.265625 C 32.800781 -33.992188 32.9375 -33.550781 32.9375 -32.9375 L 32.9375 -1.734375 C 32.9375 -1.117188 32.800781 -0.675781 32.53125 -0.40625 C 32.257812 -0.132812 31.816406 0 31.203125 0 L 23.984375 0 C 23.367188 0 22.925781 -0.132812 22.65625 -0.40625 C 22.382812 -0.675781 22.25 -1.117188 22.25 -1.734375 L 22.25 -7.65625 L 14.015625 -17.625 L 14.015625 -1.734375 C 14.015625 -1.117188 13.875 -0.675781 13.59375 -0.40625 C 13.320312 -0.132812 12.882812 0 12.28125 0 Z M 12.28125 0 "/></g></g></g><g fill="#000000" fill-opacity="1"><g transform="translate(331.126197, 110.717241)"><g><path d="M 4.28125 0 C 3.675781 0 3.234375 -0.132812 2.953125 -0.40625 C 2.679688 -0.675781 2.546875 -1.117188 2.546875 -1.734375 L 2.546875 -7.46875 C 2.546875 -8.070312 2.679688 -8.507812 2.953125 -8.78125 C 3.234375 -9.0625 3.675781 -9.203125 4.28125 -9.203125 L 9.046875 -9.203125 L 9.046875 -25.375 L 4.28125 -25.375 C 3.675781 -25.375 3.234375 -25.507812 2.953125 -25.78125 C 2.679688 -26.0625 2.546875 -26.503906 2.546875 -27.109375 L 2.546875 -32.9375 C 2.546875 -33.550781 2.679688 -33.992188 2.953125 -34.265625 C 3.234375 -34.535156 3.675781 -34.671875 4.28125 -34.671875 L 24.796875 -34.671875 C 25.410156 -34.671875 25.851562 -34.535156 26.125 -34.265625 C 26.394531 -33.992188 26.53125 -33.550781 26.53125 -32.9375 L 26.53125 -27.109375 C 26.53125 -26.503906 26.394531 -26.0625 26.125 -25.78125 C 25.851562 -25.507812 25.410156 -25.375 24.796875 -25.375 L 20.125 -25.375 L 20.125 -9.203125 L 24.796875 -9.203125 C 25.410156 -9.203125 25.851562 -9.0625 26.125 -8.78125 C 26.394531 -8.507812 26.53125 -8.070312 26.53125 -7.46875 L 26.53125 -1.734375 C 26.53125 -1.117188 26.394531 -0.675781 26.125 -0.40625 C 25.851562 -0.132812 25.410156 0 24.796875 0 Z M 4.28125 0 "/></g></g></g><g fill="#000000" fill-opacity="1"><g transform="translate(360.261872, 110.717241)"><g><path d="M 12.28125 0 L 5.0625 0 C 4.445312 0 4.003906 -0.132812 3.734375 -0.40625 C 3.460938 -0.675781 3.328125 -1.117188 3.328125 -1.734375 L 3.328125 -32.9375 C 3.328125 -33.550781 3.460938 -33.992188 3.734375 -34.265625 C 4.003906 -34.535156 4.445312 -34.671875 5.0625 -34.671875 L 10.0625 -34.671875 C 10.675781 -34.671875 11.195312 -34.570312 11.625 -34.375 C 12.0625 -34.1875 12.488281 -33.851562 12.90625 -33.375 L 22.25 -22.6875 L 22.25 -32.9375 C 22.25 -33.550781 22.382812 -33.992188 22.65625 -34.265625 C 22.925781 -34.535156 23.367188 -34.671875 23.984375 -34.671875 L 31.203125 -34.671875 C 31.816406 -34.671875 32.257812 -34.535156 32.53125 -34.265625 C 32.800781 -33.992188 32.9375 -33.550781 32.9375 -32.9375 L 32.9375 -1.734375 C 32.9375 -1.117188 32.800781 -0.675781 32.53125 -0.40625 C 32.257812 -0.132812 31.816406 0 31.203125 0 L 23.984375 0 C 23.367188 0 22.925781 -0.132812 22.65625 -0.40625 C 22.382812 -0.675781 22.25 -1.117188 22.25 -1.734375 L 22.25 -7.65625 L 14.015625 -17.625 L 14.015625 -1.734375 C 14.015625 -1.117188 13.875 -0.675781 13.59375 -0.40625 C 13.320312 -0.132812 12.882812 0 12.28125 0 Z M 12.28125 0 "/></g></g></g><g fill="#000000" fill-opacity="1"><g transform="translate(396.524954, 110.717241)"><g><path d="M 29.8125 0 L 14.640625 0 C 10.628906 0 7.648438 -0.800781 5.703125 -2.40625 C 3.765625 -4.007812 2.796875 -6.484375 2.796875 -9.828125 L 2.796875 -24.84375 C 2.796875 -28.1875 3.765625 -30.660156 5.703125 -32.265625 C 7.648438 -33.867188 10.628906 -34.671875 14.640625 -34.671875 L 26.671875 -34.671875 C 27.285156 -34.671875 27.726562 -34.535156 28 -34.265625 C 28.269531 -33.992188 28.40625 -33.550781 28.40625 -32.9375 L 28.40625 -27.109375 C 28.40625 -26.503906 28.269531 -26.0625 28 -25.78125 C 27.726562 -25.507812 27.285156 -25.375 26.671875 -25.375 L 16.65625 -25.375 C 15.664062 -25.375 14.925781 -25.171875 14.4375 -24.765625 C 13.957031 -24.367188 13.71875 -23.769531 13.71875 -22.96875 L 13.71875 -11.46875 C 13.71875 -10.65625 13.898438 -10.054688 14.265625 -9.671875 C 14.640625 -9.285156 15.195312 -9.09375 15.9375 -9.09375 L 20.609375 -9.09375 L 20.609375 -16.609375 C 20.609375 -17.222656 20.742188 -17.664062 21.015625 -17.9375 C 21.285156 -18.207031 21.726562 -18.34375 22.34375 -18.34375 L 29.8125 -18.34375 C 30.414062 -18.34375 30.851562 -18.207031 31.125 -17.9375 C 31.40625 -17.664062 31.546875 -17.222656 31.546875 -16.609375 L 31.546875 -1.734375 C 31.546875 -1.117188 31.40625 -0.675781 31.125 -0.40625 C 30.851562 -0.132812 30.414062 0 29.8125 0 Z M 29.8125 0 "/></g></g></g></svg>