<?xml version="1.0" encoding="UTF-8" standalone="no"?>
<!-- Created with Inkscape (http://www.inkscape.org/) -->

<svg
   xmlns:dc="http://purl.org/dc/elements/1.1/"
   xmlns:cc="http://creativecommons.org/ns#"
   xmlns:rdf="http://www.w3.org/1999/02/22-rdf-syntax-ns#"
   xmlns:svg="http://www.w3.org/2000/svg"
   xmlns="http://www.w3.org/2000/svg"
   xmlns:sodipodi="http://sodipodi.sourceforge.net/DTD/sodipodi-0.dtd"
   xmlns:inkscape="http://www.inkscape.org/namespaces/inkscape"
   version="1.1"
   id="svg10"
   xml:space="preserve"
   width="755.90533"
   height="755.90533"
   viewBox="0 0 755.90533 755.90533"
   sodipodi:docname="logoEmPe.svg"
   inkscape:version="0.92.4 (5da689c313, 2019-01-14)"><metadata
     id="metadata16"><rdf:RDF><cc:Work
         rdf:about=""><dc:format>image/svg+xml</dc:format><dc:type
           rdf:resource="http://purl.org/dc/dcmitype/StillImage" /><dc:title></dc:title></cc:Work></rdf:RDF></metadata><defs
     id="defs14"><clipPath
       clipPathUnits="userSpaceOnUse"
       id="clipPath26"><path
         d="M 0,566.929 H 566.929 V 0 H 0 Z"
         id="path24"
         inkscape:connector-curvature="0" /></clipPath></defs><sodipodi:namedview
     pagecolor="#ffffff"
     bordercolor="#666666"
     borderopacity="1"
     objecttolerance="10"
     gridtolerance="10"
     guidetolerance="10"
     inkscape:pageopacity="0"
     inkscape:pageshadow="2"
     inkscape:window-width="1366"
     inkscape:window-height="715"
     id="namedview12"
     showgrid="false"
     inkscape:zoom="0.68262516"
     inkscape:cx="377.95267"
     inkscape:cy="260.75804"
     inkscape:window-x="-8"
     inkscape:window-y="-8"
     inkscape:window-maximized="1"
     inkscape:current-layer="g20" /><g
     id="g18"
     inkscape:groupmode="layer"
     inkscape:label="logo"
     transform="matrix(1.3333333,0,0,-1.3333333,0,755.90533)"><g
       id="g20"><g
         id="g22"
         clip-path="url(#clipPath26)"
         transform="matrix(1.1175648,0,0,1.1192992,-34.371818,-77.92254)"
         style="stroke-width:0.89410919"><g
           id="g28"
           transform="translate(217.4155,298.1889)"
           style="stroke-width:0.89410919"><path
             d="m -48.342784,-110.96866 v 0.122 c 0,7.324 -5.371,13.426996 -12.938001,13.426996 -7.568,0 -12.817,-5.980996 -12.817,-13.304996 v -0.122 c 0,-7.323 5.37,-13.427 12.939,-13.427 7.567001,0 12.816001,5.982 12.816001,13.305 m -35.581001,0 v 0.122 c 0,12.145996 9.581,22.093996 22.765,22.093996 13.183001,0 22.642001,-9.826 22.642001,-21.971996 v -0.122 c 0,-12.144 -9.581,-22.094 -22.764001,-22.094 -13.184,0 -22.643,9.826 -22.643,21.972"
             style="fill:#414242;fill-opacity:1;fill-rule:nonzero;stroke:none;stroke-width:0.89410919"
             id="path30"
             inkscape:connector-curvature="0" /></g><g
           id="g32"
           transform="translate(231.5791,305.3911)"
           style="stroke-width:0.89410919"><path
             d="m -48.342784,-110.96866 c 0,2.563 2.075,4.638 4.638,4.638 2.564,0 4.639,-2.075 4.639,-4.638 v -0.366 c 2.135999,2.746 4.882999,5.249 9.580999,5.249 7.02,0 11.108,-4.639 11.108,-12.146 v -16.906 c 0,-2.562 -2.074,-4.639 -4.638,-4.639 -2.563,0 -4.638,2.077 -4.638,4.639 v 13.977 c 0,4.393 -2.075,6.652 -5.615,6.652 -3.539,0 -5.797999,-2.259 -5.797999,-6.652 v -13.977 c 0,-2.562 -2.075,-4.639 -4.639,-4.639 -2.563,0 -4.638,2.077 -4.638,4.639 z"
             style="fill:#414242;fill-opacity:1;fill-rule:nonzero;stroke:none;stroke-width:0.89410919"
             id="path34"
             inkscape:connector-curvature="0" /></g><g
           id="g36"
           transform="translate(264.9668,293.1235)"
           style="stroke-width:0.89410919"><path
             d="m -48.342784,-110.96866 v 0.122 c 0,9.338 7.141,17.027996 17.148999,17.027996 4.944,0 8.424,-1.342 11.169,-3.662 0.61,-0.488 1.465,-1.587 1.465,-3.173996 0,-2.319 -1.892,-4.15 -4.21,-4.15 -1.222,0 -2.137,0.488 -2.686,0.916 -1.648,1.281 -3.357,2.074 -5.798,2.074 -4.638,0 -7.933999,-4.089 -7.933999,-8.91 v -0.122 c 0,-5.005 3.234999,-9.032 8.299999,-9.032 2.441,0 4.333,0.854 6.104,2.258 0.487,0.366 1.402,0.854 2.502,0.854 2.196,0 3.906,-1.769 3.906,-3.968 0,-1.219 -0.55,-2.196 -1.343,-2.928 -2.747,-2.503 -6.226,-4.212 -11.596,-4.212 -9.825999,0 -17.027999,7.568 -17.027999,16.906"
             style="fill:#414242;fill-opacity:1;fill-rule:nonzero;stroke:none;stroke-width:0.89410919"
             id="path38"
             inkscape:connector-curvature="0" /></g><g
           id="g40"
           transform="translate(298.7817,317.2309)"
           style="stroke-width:0.89410919"><path
             d="m -48.342784,-110.96866 c 0,2.563 2.075,4.639 4.639,4.639 2.563,0 4.637,-2.076 4.637,-4.639 v -36.009 c 0,-2.562 -2.074,-4.638 -4.637,-4.638 -2.564,0 -4.639,2.076 -4.639,4.638 z"
             style="fill:#414242;fill-opacity:1;fill-rule:nonzero;stroke:none;stroke-width:0.89410919"
             id="path42"
             inkscape:connector-curvature="0" /></g><g
           id="g44"
           transform="translate(314.1621,305.3911)"
           style="stroke-width:0.89410919"><path
             d="m -48.342784,-110.96866 c 0,2.563 2.076,4.638 4.639,4.638 2.563,0 4.638,-2.075 4.638,-4.638 v -24.169 c 0,-2.562 -2.075,-4.639 -4.638,-4.639 -2.563,0 -4.639,2.077 -4.639,4.639 z m -0.549,12.083996 c 0,2.686 2.259,4.333 5.188,4.333 2.93,0 5.187,-1.647 5.187,-4.333 v -0.122 c 0,-2.685996 -2.257,-4.394996 -5.187,-4.394996 -2.929,0 -5.188,1.709 -5.188,4.394996 z"
             style="fill:#414242;fill-opacity:1;fill-rule:nonzero;stroke:none;stroke-width:0.89410919"
             id="path46"
             inkscape:connector-curvature="0" /></g><g
           id="g48"
           transform="translate(327.5288,293.1235)"
           style="stroke-width:0.89410919"><path
             d="m -48.342784,-110.96866 v 0.122 c 0,9.338 7.141,17.027996 17.149999,17.027996 4.943,0 8.422,-1.342 11.169,-3.662 0.61,-0.488 1.465,-1.587 1.465,-3.173996 0,-2.319 -1.893,-4.15 -4.212,-4.15 -1.22,0 -2.136,0.488 -2.685,0.916 -1.647,1.281 -3.357,2.074 -5.798,2.074 -4.638,0 -7.933999,-4.089 -7.933999,-8.91 v -0.122 c 0,-5.005 3.234999,-9.032 8.300999,-9.032 2.441,0 4.333,0.854 6.102,2.258 0.488,0.366 1.404,0.854 2.503,0.854 2.197,0 3.905,-1.769 3.905,-3.968 0,-1.219 -0.549,-2.196 -1.342,-2.928 -2.746,-2.503 -6.225,-4.212 -11.596,-4.212 -9.825999,0 -17.027999,7.568 -17.027999,16.906"
             style="fill:#414242;fill-opacity:1;fill-rule:nonzero;stroke:none;stroke-width:0.89410919"
             id="path50"
             inkscape:connector-curvature="0" /></g><g
           id="g52"
           transform="translate(360.9165,317.2309)"
           style="stroke-width:0.89410919"><path
             d="m -48.342784,-110.96866 c 0,2.563 2.076,4.639 4.639,4.639 2.563,0 4.638,-2.076 4.638,-4.639 v -20.263 l 11.595999,10.987 c 1.343,1.281 2.441,2.074 4.089,2.074 2.503,0 4.09,-2.014 4.09,-4.15 0,-1.586 -0.855,-2.807 -2.136,-4.028 l -7.325,-6.286 8.728,-11.779 c 0.793,-1.099 1.16,-1.953 1.16,-2.991 0,-2.502 -2.014,-4.211 -4.333,-4.211 -1.832,0 -2.93,0.61 -4.028,2.136 l -8.118,11.169 -3.722999,-3.356 v -5.311 c 0,-2.562 -2.075,-4.638 -4.638,-4.638 -2.563,0 -4.639,2.076 -4.639,4.638 z"
             style="fill:#414242;fill-opacity:1;fill-rule:nonzero;stroke:none;stroke-width:0.89410919"
             id="path54"
             inkscape:connector-curvature="0" /></g><g
           id="g56"
           transform="translate(394.0601,295.2602)"
           style="stroke-width:0.89410919"><path
             d="m -48.342784,-110.96866 v 20.078996 c 0,2.624 2.075,4.699 4.7,4.699 2.624,0 4.699,-2.075 4.699,-4.699 v -19.835996 c 0,-6.957 3.477999,-10.558 9.215999,-10.558 5.737,0 9.215,3.479 9.215,10.253 v 20.140996 c 0,2.624 2.075,4.699 4.7,4.699 2.624,0 4.699,-2.075 4.699,-4.699 v -19.773996 c 0,-12.939 -7.262,-19.286 -18.736,-19.286 -11.473999,0 -18.492999,6.408 -18.492999,18.981"
             style="fill:#414242;fill-opacity:1;fill-rule:nonzero;stroke:none;stroke-width:0.89410919"
             id="path58"
             inkscape:connector-curvature="0" /></g><g
           id="g60"
           transform="translate(461.9321,293.2455)"
           style="stroke-width:0.89410919"><path
             d="m -48.342784,-110.96866 v 0.122 c 0,5.432 -3.662,9.033 -7.996,9.033 -4.333001,0 -7.933001,-3.601 -7.933001,-9.033 v -0.122 c 0,-5.432 3.6,-9.032 7.933001,-9.032 4.334,0 7.996,3.539 7.996,9.032 m -25.083001,12.145996 c 0,2.563 2.074,4.637 4.638,4.637 2.563,0 4.637,-2.074 4.637,-4.637 v -0.428 c 2.259,3.052 5.371,5.31 10.193001,5.31 7.629,0 14.892,-5.981 14.892,-16.905996 v -0.122 c 0,-10.924 -7.141,-16.905 -14.892,-16.905 -4.944001,0 -7.995001,2.258 -10.193001,4.882 v -9.765 c 0,-2.564 -2.074,-4.639 -4.637,-4.639 -2.564,0 -4.638,2.075 -4.638,4.639 z"
             style="fill:#414242;fill-opacity:1;fill-rule:nonzero;stroke:none;stroke-width:0.89410919"
             id="path62"
             inkscape:connector-curvature="0" /></g><g
           id="g64"
           transform="translate(187.7964,249.3188)"
           style="stroke-width:0.89410919" /><g
           id="g68"
           transform="translate(207.9185,253.9604)"
           style="stroke-width:0.89410919" /><g
           id="g72"
           transform="translate(229.4883,248.7768)"
           style="stroke-width:0.89410919" /><g
           id="g76"
           transform="translate(234.7407,258.1801)"
           style="stroke-width:0.89410919" /><g
           id="g80"
           transform="translate(262.9053,254.2016)"
           style="stroke-width:0.89410919" /><g
           id="g84"
           transform="translate(288.8135,253.4389)"
           style="stroke-width:0.89410919" /><g
           id="g88"
           transform="translate(302.0063,258.1801)"
           style="stroke-width:0.89410919" /><g
           id="g92"
           transform="translate(322.8896,252.1918)"
           style="stroke-width:0.89410919" /><g
           id="g96"
           transform="translate(335.7603,249.4799)"
           style="stroke-width:0.89410919" /><g
           id="g100"
           transform="translate(356.501,248.7768)"
           style="stroke-width:0.89410919" /><g
           id="g104"
           transform="translate(368.8057,252.1918)"
           style="stroke-width:0.89410919" /><g
           id="g108"
           transform="translate(381.6348,253.4389)"
           style="stroke-width:0.89410919" /><g
           id="g112"
           transform="translate(402.3779,252.1918)"
           style="stroke-width:0.89410919" /><g
           id="g116"
           transform="translate(408.3726,258.1801)"
           style="stroke-width:0.89410919" /><g
           id="g120"
           transform="translate(417.9214,258.1801)"
           style="stroke-width:0.89410919" /><g
           id="g124"
           transform="translate(434.7642,253.9604)"
           style="stroke-width:0.89410919" /><g
           id="g128"
           transform="translate(440.3564,258.1801)"
           style="stroke-width:0.89410919" /><g
           id="g132"
           transform="translate(446.73,258.1801)"
           style="stroke-width:0.89410919" /><g
           id="g136"
           transform="translate(462.8291,252.1918)"
           style="stroke-width:0.89410919" /><g
           id="g140"
           transform="translate(469.2651,250.143)"
           style="stroke-width:0.89410919"><path
             d="m 0,0 c 0.382,0 0.664,-0.281 0.664,-0.663 v -0.542 c 0,-0.382 -0.282,-0.663 -0.664,-0.663 -0.382,0 -0.663,0.281 -0.663,0.663 v 0.542 C -0.663,-0.281 -0.382,0 0,0"
             style="fill:#414242;fill-opacity:1;fill-rule:nonzero;stroke:none;stroke-width:0.89410919"
             id="path142"
             inkscape:connector-curvature="0" /></g><g
           id="g144"
           transform="translate(116.1733,248.933)"
           style="stroke-width:0.89410919"><path
             d="m 107.29287,-2.9217388 h 130.58499 c 8.41796,0 15.26913,7.2041269 15.26913,16.0557548 V 184.24384 c 0,8.85163 -6.85117,16.05575 -15.26913,16.05575 H 75.154142 c -8.42077,0 -15.26913,-7.20412 -15.26913,-16.05575 V 48.655676 l 69.140668,72.705584 -19.44441,20.44614 c -0.3566,0.36611 -0.84517,0.86508 -1.31408,1.5353 -1.7886,2.56278 -2.15082,5.78102 -0.97432,8.60657 1.17368,2.82556 3.66425,4.72402 6.66304,5.08128 0.72443,0.0827 1.37023,0.0827 1.88969,0.0738 h 0.29482 7.14881 c 26.21415,0.009 52.4283,0.0118 78.64526,0.009 1.00521,0 1.95988,-0.0856 2.80224,-0.16534 0.33975,-0.0266 0.68231,-0.062 1.02206,-0.0856 1.21018,-0.0827 2.35017,-0.62888 3.20657,-1.5294 l 1.24669,-1.31091 c 0.78339,-0.8208 1.286,-1.88961 1.43201,-3.04109 0.0281,-0.22734 0.0646,-0.45469 0.10108,-0.68203 0.12354,-0.74994 0.27236,-1.68884 0.27236,-2.75469 -0.0225,-26.94757 -0.0646,-53.895137 -0.10389,-80.842705 l -0.0168,-10.77076 v -0.197818 c 0.003,-0.315919 0.003,-0.63479 -0.0112,-0.950709 -0.1432,-3.548918 -1.94304,-6.350853 -4.9334,-7.691293 -3.09145,-1.378822 -6.43,-0.732222 -8.9318,1.741982 -0.72442,0.714509 -1.42077,1.455589 -2.11712,2.19667 l -0.81989,0.87099 -17.82709,18.745493 z M 237.87786,-13.456296 H 95.196622 c -2.02727,0 -3.85238,1.281389 -4.63016,3.250714 -0.77497,1.9693234 -0.34536,4.2338994 1.08664,5.7426325 L 173.71272,81.821234 c 1.88126,1.97523 5.20576,1.97523 7.08703,0 l 21.08139,-22.170405 0.0112,7.068311 c 0.0393,26.619839 0.0786,53.23672 0.10389,79.85656 h -0.0618 c -26.21415,0.006 -52.42831,0 -78.64526,-0.006 h -4.06297 l 20.42996,-21.48542 c 1.95708,-2.05495 1.95708,-5.39424 0,-7.44919 L 58.416502,32.21019 c -1.43201,-1.505781 -3.58844,-1.960467 -5.46128,-1.139669 -1.87284,0.81194 -3.09145,2.731072 -3.09145,4.865738 V 184.24384 c 0,14.65922 11.34374,26.59031 25.29037,26.59031 H 237.87786 c 13.94382,0 25.29037,-11.93109 25.29037,-26.59031 V 13.134016 c 0,-14.6592171 -11.34655,-26.590312 -25.29037,-26.590312"
             style="fill:#414242;fill-opacity:1;fill-rule:nonzero;stroke:none;stroke-width:0.89410919"
             id="path146"
             inkscape:connector-curvature="0" /></g></g></g></g></svg>