<?xml version="1.0" standalone="no"?>
<!DOCTYPE svg PUBLIC "-//W3C//DTD SVG 20010904//EN"
 "http://www.w3.org/TR/2001/REC-SVG-20010904/DTD/svg10.dtd">
<svg version="1.0" xmlns="http://www.w3.org/2000/svg"
 width="705.000000pt" height="344.000000pt" viewBox="0 0 705.000000 344.000000"
 preserveAspectRatio="xMidYMid meet">

<g transform="translate(0.000000,344.000000) scale(0.100000,-0.100000)"
fill="#000000" stroke="none">
<path d="M0 1720 l0 -1720 3525 0 3525 0 0 1720 0 1720 -3525 0 -3525 0 0
-1720z m2140 290 l0 -60 -48 0 c-58 0 -72 -12 -72 -62 l0 -38 55 0 55 0 0 -34
c0 -18 -3 -48 -6 -65 -6 -30 -9 -31 -55 -31 l-49 0 0 -175 0 -175 -70 0 -70 0
0 175 0 175 -45 0 -46 0 3 63 3 62 41 3 42 3 4 72 c6 118 37 144 176 146 l82
1 0 -60z m1440 -65 l0 -115 26 10 c37 15 141 12 172 -4 64 -33 67 -43 67 -215
0 -156 0 -158 -27 -193 -16 -21 -44 -42 -65 -50 -41 -14 -248 -18 -295 -5
l-28 7 0 330 0 329 48 6 c26 4 52 8 57 10 43 15 45 10 45 -110z m1392 -92 l3
-208 60 97 60 98 83 0 82 0 -52 -82 c-28 -46 -60 -98 -71 -116 l-20 -33 53
-87 c29 -48 61 -102 72 -119 l20 -33 -84 0 -83 1 -60 102 -60 102 -3 -102 -3
-103 -74 0 -75 0 0 334 0 335 48 6 c26 4 52 8 57 10 45 15 44 17 47 -202z
m-2527 -29 c67 -32 75 -60 75 -271 l0 -183 -64 0 c-38 0 -66 5 -68 11 -3 8
-18 6 -51 -5 -58 -20 -97 -20 -141 -2 -55 23 -76 59 -76 132 0 56 3 66 29 92
34 34 66 42 162 42 66 0 69 1 69 24 0 41 -34 56 -130 56 l-85 0 3 52 c5 85 -2
81 125 76 84 -3 122 -9 152 -24z m478 11 c13 -6 17 -19 17 -65 l0 -57 -98 5
c-127 6 -132 2 -132 -113 0 -116 5 -120 132 -111 l98 6 0 -60 c0 -57 -1 -60
-27 -67 -38 -10 -191 -10 -225 0 -41 11 -95 63 -108 103 -16 48 -17 210 -2
255 16 45 58 86 108 105 40 15 200 14 237 -1z m367 -7 c70 -37 84 -64 88 -174
l4 -94 -131 0 c-123 0 -131 -1 -131 -19 0 -11 8 -27 17 -37 15 -15 31 -16 130
-10 l113 6 0 -59 c0 -71 1 -70 -131 -78 -208 -13 -289 56 -289 246 0 132 33
197 115 226 64 23 163 19 215 -7z m913 6 c87 -29 117 -91 117 -234 -1 -178
-53 -233 -220 -234 -120 0 -167 29 -198 123 -29 83 -8 255 36 304 47 54 171
73 265 41z m465 0 c51 -21 90 -61 102 -103 5 -20 10 -79 10 -131 -1 -150 -37
-208 -148 -231 -116 -24 -221 12 -257 88 -14 29 -19 63 -19 143 -1 153 23 204
111 235 52 19 155 19 201 -1z"/>
<path d="M3598 1713 c-16 -4 -18 -18 -18 -114 l0 -109 45 0 c69 0 85 22 85
116 0 96 -9 114 -58 113 -20 -1 -45 -3 -54 -6z"/>
<path d="M2274 1526 c-17 -45 23 -68 79 -47 19 8 27 18 27 36 0 23 -3 25 -50
25 -35 0 -52 -5 -56 -14z"/>
<path d="M3160 1733 c-21 -7 -40 -34 -40 -55 0 -15 9 -18 60 -18 53 0 60 2 60
20 0 23 -34 60 -52 59 -7 0 -20 -3 -28 -6z"/>
<path d="M4056 1698 c-20 -28 -21 -142 -3 -178 16 -31 76 -40 101 -15 19 19
23 163 6 196 -16 28 -84 27 -104 -3z"/>
<path d="M4522 1708 c-16 -16 -16 -190 0 -206 17 -17 74 -15 92 4 19 18 23
163 6 195 -12 22 -78 27 -98 7z"/>
</g>
</svg>
