<?xml version="1.0" standalone="no"?>
<!DOCTYPE svg PUBLIC "-//W3C//DTD SVG 20010904//EN"
 "http://www.w3.org/TR/2001/REC-SVG-20010904/DTD/svg10.dtd">
<svg version="1.0" xmlns="http://www.w3.org/2000/svg"
 width="749.000000pt" height="375.000000pt" viewBox="0 0 749.000000 375.000000"
 preserveAspectRatio="xMidYMid meet">

<g transform="translate(0.000000,375.000000) scale(0.100000,-0.100000)"
fill="#000000" stroke="none">
<path d="M0 1875 l0 -1875 3745 0 3745 0 0 1875 0 1875 -3745 0 -3745 0 0
-1875z m1759 915 c224 -63 399 -238 458 -463 26 -100 22 -253 -11 -354 -100
-309 -423 -502 -736 -439 -47 10 -110 28 -140 41 l-55 25 -165 -44 c-91 -24
-167 -42 -169 -40 -2 2 16 77 40 167 l45 163 -28 59 c-86 184 -73 411 34 593
54 92 164 194 260 241 46 23 108 47 138 55 84 22 241 20 329 -4z m842 -425
c15 -60 37 -155 50 -210 l22 -99 53 203 c29 112 57 208 62 213 5 5 35 8 68 6
l58 -3 52 -210 c29 -115 55 -203 58 -195 3 8 24 96 47 195 23 99 46 188 51
198 7 13 22 17 68 17 32 0 61 -3 63 -7 2 -5 -32 -145 -78 -313 l-82 -305 -71
-3 -71 -3 -10 38 c-6 21 -29 115 -53 208 l-42 170 -51 -207 -50 -208 -72 0
-72 0 -15 53 c-37 129 -146 550 -146 563 0 12 14 14 68 12 l67 -3 26 -110z
m809 -1 l0 -116 30 26 c83 69 211 50 251 -37 16 -36 19 -67 19 -214 l0 -173
-65 0 -65 0 0 158 c0 185 -6 202 -71 202 -86 0 -99 -31 -99 -227 l0 -133 -65
0 -65 0 0 308 c0 170 3 312 7 315 3 4 33 7 65 7 l58 0 0 -116z m2026 -193 c63
-167 114 -308 114 -313 0 -5 -32 -8 -72 -6 l-71 3 -21 63 -22 63 -112 0 c-61
0 -115 -2 -120 -5 -5 -3 -17 -32 -27 -66 l-18 -60 -73 0 -74 0 19 48 c14 36
164 432 212 560 8 21 14 23 80 20 l71 -3 114 -304z m-1016 199 l0 -70 45 0 45
0 0 -40 0 -40 -45 0 -45 0 0 -122 c0 -68 4 -130 9 -137 6 -9 25 -15 46 -15
l36 0 -3 -50 -3 -51 -47 -3 c-73 -5 -126 14 -148 51 -17 28 -20 51 -20 180 l0
147 -35 0 c-34 0 -35 1 -35 40 0 39 1 40 35 40 l35 0 0 70 0 70 65 0 65 0 0
-70z m-314 -71 c17 -5 42 -21 55 -35 26 -28 25 -22 31 -296 l3 -118 -62 0
c-51 0 -63 3 -63 16 0 9 -3 14 -7 12 -86 -44 -175 -53 -232 -24 -92 48 -92
187 0 237 9 5 58 15 109 23 103 17 122 28 118 65 -7 61 -118 67 -146 9 -12
-26 -18 -28 -73 -28 -55 0 -59 2 -59 23 0 33 35 84 71 103 62 32 174 37 255
13z m731 0 c40 -13 93 -72 93 -104 0 -24 -3 -25 -59 -25 -50 0 -59 3 -64 20
-5 21 -44 40 -82 40 -32 0 -68 -31 -60 -52 8 -19 32 -30 140 -58 52 -14 90
-30 107 -47 50 -48 48 -119 -4 -179 -36 -41 -87 -56 -182 -56 -110 1 -187 52
-198 132 -3 24 -1 25 60 28 55 3 62 1 62 -16 0 -44 76 -74 129 -52 65 26 51
74 -27 96 -31 8 -80 22 -107 29 -103 29 -141 110 -89 192 39 62 172 86 281 52z
m1083 -4 c72 -38 112 -116 112 -221 0 -146 -75 -235 -199 -235 -42 0 -64 5
-94 25 l-39 26 0 -100 0 -100 -65 0 -65 0 0 305 0 305 60 0 c58 0 60 -1 60
-27 l0 -27 29 28 c47 45 136 54 201 21z m499 -3 c131 -60 149 -324 28 -416
-64 -49 -157 -52 -218 -7 -16 12 -29 21 -31 21 -2 0 -3 -44 -3 -97 l0 -98 -62
-3 -63 -3 0 306 0 305 60 0 c54 0 60 -2 60 -20 0 -20 0 -20 29 1 54 40 128 44
200 11z"/>
<path d="M5210 2208 c-19 -56 -36 -105 -38 -110 -2 -4 30 -8 72 -8 42 0 76 3
76 7 0 13 -62 198 -69 205 -3 4 -22 -38 -41 -94z"/>
<path d="M3983 2045 c-74 -14 -93 -28 -93 -66 0 -39 38 -64 88 -56 50 8 82 46
82 98 0 21 -3 38 -7 38 -5 -1 -36 -7 -70 -14z"/>
<path d="M5765 2211 c-48 -21 -60 -48 -60 -136 0 -74 3 -86 24 -109 31 -33 80
-42 118 -22 68 34 82 174 24 237 -28 31 -74 44 -106 30z"/>
<path d="M6243 2200 c-39 -23 -58 -82 -49 -154 7 -60 25 -89 66 -106 70 -29
130 21 138 113 6 73 -12 124 -52 148 -39 24 -63 24 -103 -1z"/>
</g>
</svg>
