<?xml version="1.0" standalone="no"?>
<!DOCTYPE svg PUBLIC "-//W3C//DTD SVG 20010904//EN"
 "http://www.w3.org/TR/2001/REC-SVG-20010904/DTD/svg10.dtd">
<svg version="1.0" xmlns="http://www.w3.org/2000/svg"
 width="1200.000000pt" height="550.000000pt" viewBox="0 0 1200.000000 550.000000"
 preserveAspectRatio="xMidYMid meet">

<g transform="translate(0.000000,550.000000) scale(0.100000,-0.100000)"
fill="#000000" stroke="none">
<path d="M0 2988 c1 -1382 4 -2528 8 -2547 10 -45 32 -53 32 -12 0 20 5 31 14
31 10 0 14 -9 13 -27 -2 -26 0 -27 41 -24 31 2 47 -2 55 -13 10 -14 12 -11 13
15 1 20 -2 26 -7 17 -7 -10 -9 -9 -9 4 0 13 -11 18 -42 21 -24 2 -6 3 39 3 74
-1 82 -3 77 -18 -4 -14 0 -18 16 -18 16 0 20 5 16 15 -5 15 24 22 37 8 12 -11
-14 -33 -39 -33 -15 0 -24 -6 -24 -15 0 -12 10 -15 45 -13 45 3 45 3 45 40 0
20 -6 39 -12 42 -7 3 -3 3 9 0 15 -3 23 -1 23 8 0 10 2 10 9 -1 5 -7 14 -11
19 -7 14 8 32 -25 32 -58 0 -14 5 -26 10 -26 6 0 10 18 10 40 0 22 5 40 10 40
6 0 10 -18 10 -40 0 -29 4 -40 15 -40 14 0 14 32 -1 78 -2 7 1 10 6 7 6 -3 10
-13 10 -21 0 -18 76 -20 84 -1 3 6 3 -4 0 -23 -4 -26 -3 -31 5 -20 9 13 11 12
12 -5 0 -19 1 -19 8 -1 4 11 17 21 29 23 18 2 22 -2 22 -24 l0 -26 120 6 c77
5 120 3 120 -3 0 -6 9 -10 20 -10 11 0 20 5 20 10 0 6 15 10 34 10 18 0 47 7
62 15 26 13 29 13 35 -3 6 -15 7 -15 11 3 5 16 6 17 7 3 1 -12 9 -18 25 -18
22 0 25 5 29 43 l4 42 1 -43 2 -44 54 4 c31 2 54 -1 53 -7 -1 -5 8 -14 21 -20
12 -5 22 -17 22 -25 0 -13 -15 -16 -76 -17 -68 -2 -95 -7 -83 -16 2 -2 41 -1
87 1 l82 4 0 38 c0 21 5 40 13 42 6 2 52 3 101 2 70 -2 91 -6 98 -18 8 -14 37
-16 206 -16 108 0 207 -3 220 -6 13 -4 22 -14 23 -28 1 -19 2 -19 9 4 6 19 8
9 9 -37 1 -49 4 -63 16 -63 11 0 15 12 15 53 0 37 -3 48 -10 37 -8 -12 -10
-11 -10 6 0 12 7 25 16 28 26 10 84 7 84 -5 0 -5 4 -7 10 -4 5 3 10 -4 11 -17
1 -23 1 -23 9 2 l8 25 2 -25 c1 -23 2 -23 10 -5 l9 20 0 -20 c1 -15 3 -17 10
-7 5 9 10 -2 13 -32 5 -45 37 -93 46 -68 5 15 112 16 162 2 25 -7 41 -7 57 1
17 9 26 9 38 -1 10 -8 15 -9 15 -1 0 6 11 11 25 11 16 0 25 -6 25 -15 0 -18
45 -20 84 -5 24 9 26 7 26 -17 l0 -26 23 21 c22 21 29 22 89 13 64 -9 128 -34
128 -49 0 -4 18 -13 40 -19 22 -5 40 -6 40 -2 0 14 88 11 93 -3 3 -7 6 -4 7 7
2 17 3 16 10 -5 l8 -25 2 25 c1 23 2 23 10 5 l9 -20 1 20 1 20 9 -20 c5 -11 9
-14 9 -7 1 7 16 -3 33 -23 36 -38 48 -43 48 -20 0 11 11 15 40 15 29 0 40 -4
40 -15 0 -12 15 -15 79 -15 44 0 81 4 83 8 1 4 56 6 121 4 101 -4 117 -6 117
-21 0 -9 10 -25 22 -35 17 -15 25 -16 40 -7 22 14 178 15 178 1 0 -7 1353 -10
4040 -10 l4040 0 0 2750 0 2750 -6000 0 -6000 0 0 -2512z m4890 -228 c0 -538
-2 -610 -15 -610 -14 0 -15 72 -15 610 1 530 3 610 15 610 13 0 15 -80 15
-610z m-1016 551 c78 -31 145 -98 177 -177 24 -58 24 -64 24 -384 0 -316 -1
-327 -23 -382 -44 -108 -136 -177 -262 -197 -84 -14 -506 -14 -590 0 -129 21
-224 100 -260 217 -18 58 -20 93 -20 362 0 347 7 390 81 474 91 103 149 116
524 113 278 -3 292 -4 349 -26z m1973 -127 l26 -26 -6 -331 c-6 -377 -10 -400
-78 -462 -22 -20 -46 -34 -52 -32 -13 4 -13 9 1 132 5 44 10 213 11 375 l2
294 -25 -23 c-61 -58 -98 -239 -62 -309 32 -63 14 -79 -44 -39 -81 54 -96 146
-43 257 73 153 202 232 270 164z m1089 11 l35 -15 -7 -70 -7 -70 70 0 c81 0
99 -12 83 -54 -9 -25 -13 -26 -78 -26 l-69 0 -7 -92 c-13 -195 -4 -336 24
-353 16 -10 47 13 70 50 14 22 25 64 31 113 19 155 54 228 127 263 35 18 47
19 74 10 17 -6 40 -19 50 -28 17 -15 19 -15 32 3 13 18 17 18 58 4 l43 -15 0
-185 c0 -200 7 -234 48 -228 34 5 47 44 47 144 0 205 88 335 204 303 19 -5 39
-16 46 -24 11 -14 15 -14 31 1 16 15 25 15 59 5 l40 -12 2 -172 3 -172 41 80
c60 117 70 150 50 180 -19 29 -20 55 -5 88 11 23 47 47 71 47 21 0 48 -33 48
-58 0 -22 3 -24 33 -18 97 20 103 19 124 -7 20 -26 20 -26 1 -124 -29 -148
-11 -263 42 -263 37 0 50 37 44 125 -12 147 40 280 122 317 37 16 50 17 79 8
18 -6 39 -18 46 -26 10 -13 14 -12 30 2 16 15 25 15 59 5 22 -6 40 -17 40 -24
1 -7 2 -93 3 -192 2 -99 6 -188 11 -197 11 -23 38 -23 59 0 36 40 47 99 47
263 l0 159 36 0 c65 0 74 -11 75 -98 l0 -77 29 80 c31 87 50 108 89 98 54 -12
71 -40 72 -117 1 -69 15 -155 18 -110 1 28 58 193 72 210 19 23 74 17 107 -11
l30 -25 -6 -108 c-2 -60 -1 -139 2 -175 13 -118 63 -140 92 -41 20 69 44 74
44 9 0 -89 -42 -145 -108 -145 -86 0 -122 69 -131 250 l-6 125 -18 -50 c-24
-70 -47 -182 -47 -232 0 -31 -5 -45 -19 -52 -24 -13 -72 2 -88 28 -14 22 -32
147 -34 239 -1 34 -5 62 -9 62 -9 0 -46 -100 -60 -160 -5 -25 -10 -75 -10
-112 0 -93 -3 -98 -59 -98 -50 0 -71 13 -71 43 0 15 -5 13 -26 -12 -21 -26
-33 -31 -69 -31 -34 0 -50 6 -74 29 -17 16 -31 37 -31 46 0 12 -10 6 -33 -19
-39 -41 -73 -56 -129 -56 -32 0 -46 6 -71 33 l-32 32 -31 -32 c-72 -75 -178
-21 -204 102 -12 56 -10 115 6 215 l7 41 -32 -3 c-38 -3 -40 -6 -70 -78 -27
-63 -79 -153 -126 -214 -32 -43 -33 -44 -37 -177 -5 -150 -20 -200 -77 -254
-26 -24 -41 -30 -95 -33 -59 -4 -65 -2 -99 28 -81 71 -59 150 79 285 52 50 94
96 94 103 0 17 -8 15 -33 -9 -29 -28 -60 -39 -108 -39 -31 0 -47 7 -75 33
l-36 33 -33 -33 c-45 -45 -103 -47 -146 -4 -16 16 -29 38 -29 48 0 14 -6 10
-26 -15 -72 -92 -208 -80 -245 22 l-12 34 -28 -42 c-15 -24 -37 -51 -50 -60
-33 -23 -90 -21 -118 5 -28 26 -60 95 -61 128 0 22 -4 19 -29 -20 -36 -56 -87
-104 -126 -119 -68 -26 -206 -5 -221 34 -8 20 23 76 43 76 8 0 31 -9 50 -21
47 -29 80 -20 88 25 8 41 -9 77 -62 128 l-39 38 -33 -58 c-108 -182 -155 -232
-219 -232 -23 0 -36 7 -49 27 -16 23 -18 52 -18 209 0 204 -1 206 -59 100 -38
-68 -83 -202 -94 -280 l-7 -51 -45 0 c-42 0 -46 2 -57 35 -13 39 -16 203 -7
363 8 118 13 126 70 102 l34 -14 0 -108 0 -108 24 57 c32 78 72 144 98 163 36
24 92 19 128 -12 l32 -27 -7 -136 c-7 -144 -1 -210 20 -210 15 0 51 51 104
149 38 72 39 76 24 104 -40 79 52 187 134 156 32 -12 32 -72 -2 -121 l-25 -37
48 -34 c70 -53 102 -90 116 -138 l13 -43 29 50 c28 47 29 55 32 191 l3 142
-58 3 c-62 3 -71 13 -59 64 6 22 11 24 66 24 l60 0 0 68 c0 93 20 109 96 77z
m-6878 -2682 c-7 -9 -7 -17 1 -26 9 -11 6 -14 -14 -13 -14 1 -24 6 -23 11 2 6
7 9 12 7 5 -2 6 4 3 12 -4 9 -2 15 2 13 5 -1 8 3 8 8 -1 6 -5 9 -9 8 -4 -2 -5
4 -1 12 5 13 7 13 18 -2 9 -13 10 -22 3 -30z m502 -43 c0 -5 -9 -10 -21 -10
-11 0 -17 5 -14 10 3 6 13 10 21 10 8 0 14 -4 14 -10z m27 -42 c-3 -7 -5 -2
-5 12 0 14 2 19 5 13 2 -7 2 -19 0 -25z m500 10 c-3 -8 -6 -5 -6 6 -1 11 2 17
5 13 3 -3 4 -12 1 -19z m20 -15 c-3 -10 -5 -4 -5 12 0 17 2 24 5 18 2 -7 2
-21 0 -30z m1270 -115 c-3 -8 -6 -5 -6 6 -1 11 2 17 5 13 3 -3 4 -12 1 -19z
m-100 -4 c-3 -3 -12 -4 -19 -1 -8 3 -5 6 6 6 11 1 17 -2 13 -5z m1178 -74 c3
-5 1 -10 -4 -10 -6 0 -11 5 -11 10 0 6 2 10 4 10 3 0 8 -4 11 -10z m-15 -135
c0 -11 -11 -15 -40 -15 -29 0 -40 4 -40 15 0 11 11 15 40 15 29 0 40 -4 40
-15z m77 9 c-3 -3 -12 -4 -19 -1 -8 3 -5 6 6 6 11 1 17 -2 13 -5z"/>
<path d="M3244 3221 c-39 -5 -84 -16 -101 -24 -49 -26 -90 -80 -102 -137 -14
-66 -15 -553 0 -618 14 -69 65 -126 130 -147 43 -15 94 -17 318 -18 146 0 285
4 308 8 59 10 120 57 146 113 21 45 22 61 22 347 0 266 -2 305 -18 347 -21 55
-71 102 -124 118 -47 14 -482 22 -579 11z m611 -106 c59 -58 -2 -149 -80 -119
-8 4 -22 19 -30 35 -18 34 -8 69 27 93 32 22 55 20 83 -9z m-228 -92 c139 -64
207 -233 152 -378 -30 -80 -105 -155 -178 -180 -70 -23 -179 -17 -237 13 -56
28 -129 112 -148 169 -37 107 -9 235 66 312 98 99 221 122 345 64z"/>
<path d="M3398 2911 c-112 -71 -117 -240 -8 -316 77 -53 183 -42 244 26 32 34
56 91 56 129 0 65 -58 152 -117 176 -56 24 -123 18 -175 -15z"/>
<path d="M7236 2838 c-26 -40 -39 -116 -34 -202 5 -92 24 -136 59 -136 29 0
65 44 78 95 16 62 14 189 -3 230 -13 31 -19 35 -50 35 -26 0 -40 -6 -50 -22z"/>
<path d="M7721 2841 c-73 -73 -58 -341 19 -341 65 0 115 209 77 320 -10 29
-18 36 -44 38 -22 2 -38 -3 -52 -17z"/>
<path d="M8545 2836 c-26 -39 -35 -86 -35 -174 0 -126 31 -181 85 -152 42 22
60 82 60 201 0 91 -3 110 -19 128 -26 29 -71 28 -91 -3z"/>
<path d="M7789 2320 c-26 -30 -54 -69 -63 -87 -19 -38 -21 -94 -4 -111 18 -18
56 -14 77 7 25 25 43 113 39 187 l-3 58 -46 -54z"/>
<path d="M344 436 c-3 -14 -1 -33 5 -43 8 -15 10 -10 11 25 0 47 -6 55 -16 18z"/>
<path d="M377 439 c-3 -12 -2 -31 3 -42 7 -18 9 -14 9 21 1 46 -4 54 -12 21z"/>
<path d="M193 425 c-6 -14 -7 -25 -2 -25 5 0 9 5 9 11 0 8 6 7 17 -2 15 -12
16 -12 10 4 -4 10 -7 23 -7 28 0 18 -15 9 -27 -16z"/>
<path d="M1506 321 c-4 -7 -5 -15 -2 -18 9 -9 19 4 14 18 -4 11 -6 11 -12 0z"/>
<path d="M1695 290 c3 -5 13 -10 21 -10 8 0 14 5 14 10 0 6 -9 10 -21 10 -11
0 -17 -4 -14 -10z"/>
<path d="M1315 281 c-25 -5 -27 -8 -12 -14 30 -12 57 -8 57 8 0 8 -3 14 -7 14
-5 -1 -21 -4 -38 -8z"/>
<path d="M1538 273 c12 -2 32 -2 45 0 12 2 2 4 -23 4 -25 0 -35 -2 -22 -4z"/>
<path d="M1906 234 c-5 -13 -20 -15 -81 -12 -41 2 -75 0 -75 -4 0 -5 38 -8 85
-8 78 0 85 2 85 20 0 24 -6 26 -14 4z"/>
<path d="M1623 213 c15 -2 37 -2 50 0 12 2 0 4 -28 4 -27 0 -38 -2 -22 -4z"/>
<path d="M2060 210 c0 -5 5 -10 10 -10 6 0 10 5 10 10 0 6 -4 10 -10 10 -5 0
-10 -4 -10 -10z"/>
<path d="M2258 193 c12 -2 32 -2 45 0 12 2 2 4 -23 4 -25 0 -35 -2 -22 -4z"/>
<path d="M2480 155 c0 -8 7 -15 15 -15 8 0 15 7 15 15 0 8 -7 15 -15 15 -8 0
-15 -7 -15 -15z"/>
<path d="M2560 150 c0 -5 7 -10 16 -10 8 0 12 5 9 10 -3 6 -10 10 -16 10 -5 0
-9 -4 -9 -10z"/>
<path d="M2720 150 c0 -5 -7 -10 -17 -10 -9 0 -14 -2 -11 -5 9 -9 58 6 52 16
-7 12 -24 11 -24 -1z"/>
<path d="M2777 114 c-8 -8 1 -24 14 -24 5 0 9 7 9 15 0 15 -12 20 -23 9z"/>
<path d="M3060 74 c0 -16 -2 -17 -11 -4 -9 12 -10 12 -5 -3 3 -10 6 -26 7 -35
0 -9 5 -2 10 17 6 18 8 36 5 39 -3 3 -6 -3 -6 -14z"/>
<path d="M3081 80 c-1 -8 -4 -26 -7 -40 -5 -19 -4 -22 5 -14 7 6 11 24 8 40
-2 16 -5 22 -6 14z"/>
<path d="M3101 74 c0 -11 3 -14 6 -6 3 7 2 16 -1 19 -3 4 -6 -2 -5 -13z"/>
<path d="M2860 40 c0 -5 5 -10 10 -10 6 0 10 5 10 10 0 6 -4 10 -10 10 -5 0
-10 -4 -10 -10z"/>
<path d="M3101 34 c0 -11 3 -14 6 -6 3 7 2 16 -1 19 -3 4 -6 -2 -5 -13z"/>
<path d="M3600 20 c0 -5 7 -10 15 -10 8 0 15 5 15 10 0 6 -7 10 -15 10 -8 0
-15 -4 -15 -10z"/>
</g>
</svg>
